<svg xmlns="http://www.w3.org/2000/svg" xmlns:xlink="http://www.w3.org/1999/xlink" width="600" height="400" viewBox="0 0 2400 1600">
<defs>
  <clipPath id="clip750">
    <rect x="0" y="0" width="2400" height="1600"></rect>
  </clipPath>
</defs>
<path clip-path="url(#clip750)" d="M0 1600 L2400 1600 L2400 0 L0 0  Z" fill="#ffffff" fill-rule="evenodd" fill-opacity="1"></path>
<defs>
  <clipPath id="clip751">
    <rect x="480" y="0" width="1681" height="1600"></rect>
  </clipPath>
</defs>
<path clip-path="url(#clip750)" d="M175.445 1423.18 L2352.76 1423.18 L2352.76 123.472 L175.445 123.472  Z" fill="#ffffff" fill-rule="evenodd" fill-opacity="1"></path>
<defs>
  <clipPath id="clip752">
    <rect x="175" y="123" width="2178" height="1301"></rect>
  </clipPath>
</defs>
<polyline clip-path="url(#clip752)" style="stroke:#000000; stroke-linecap:round; stroke-linejoin:round; stroke-width:2; stroke-opacity:0.1; fill:none" points="465.297,1423.18 465.297,123.472 "></polyline>
<polyline clip-path="url(#clip752)" style="stroke:#000000; stroke-linecap:round; stroke-linejoin:round; stroke-width:2; stroke-opacity:0.1; fill:none" points="921.756,1423.18 921.756,123.472 "></polyline>
<polyline clip-path="url(#clip752)" style="stroke:#000000; stroke-linecap:round; stroke-linejoin:round; stroke-width:2; stroke-opacity:0.1; fill:none" points="1378.22,1423.18 1378.22,123.472 "></polyline>
<polyline clip-path="url(#clip752)" style="stroke:#000000; stroke-linecap:round; stroke-linejoin:round; stroke-width:2; stroke-opacity:0.1; fill:none" points="1834.67,1423.18 1834.67,123.472 "></polyline>
<polyline clip-path="url(#clip752)" style="stroke:#000000; stroke-linecap:round; stroke-linejoin:round; stroke-width:2; stroke-opacity:0.1; fill:none" points="2291.13,1423.18 2291.13,123.472 "></polyline>
<polyline clip-path="url(#clip752)" style="stroke:#000000; stroke-linecap:round; stroke-linejoin:round; stroke-width:2; stroke-opacity:0.1; fill:none" points="175.445,1276.85 2352.76,1276.85 "></polyline>
<polyline clip-path="url(#clip752)" style="stroke:#000000; stroke-linecap:round; stroke-linejoin:round; stroke-width:2; stroke-opacity:0.1; fill:none" points="175.445,973.602 2352.76,973.602 "></polyline>
<polyline clip-path="url(#clip752)" style="stroke:#000000; stroke-linecap:round; stroke-linejoin:round; stroke-width:2; stroke-opacity:0.1; fill:none" points="175.445,670.351 2352.76,670.351 "></polyline>
<polyline clip-path="url(#clip752)" style="stroke:#000000; stroke-linecap:round; stroke-linejoin:round; stroke-width:2; stroke-opacity:0.1; fill:none" points="175.445,367.099 2352.76,367.099 "></polyline>
<polyline clip-path="url(#clip750)" style="stroke:#000000; stroke-linecap:round; stroke-linejoin:round; stroke-width:4; stroke-opacity:1; fill:none" points="175.445,1423.18 2352.76,1423.18 "></polyline>
<polyline clip-path="url(#clip750)" style="stroke:#000000; stroke-linecap:round; stroke-linejoin:round; stroke-width:4; stroke-opacity:1; fill:none" points="465.297,1423.18 465.297,1404.28 "></polyline>
<polyline clip-path="url(#clip750)" style="stroke:#000000; stroke-linecap:round; stroke-linejoin:round; stroke-width:4; stroke-opacity:1; fill:none" points="921.756,1423.18 921.756,1404.28 "></polyline>
<polyline clip-path="url(#clip750)" style="stroke:#000000; stroke-linecap:round; stroke-linejoin:round; stroke-width:4; stroke-opacity:1; fill:none" points="1378.22,1423.18 1378.22,1404.28 "></polyline>
<polyline clip-path="url(#clip750)" style="stroke:#000000; stroke-linecap:round; stroke-linejoin:round; stroke-width:4; stroke-opacity:1; fill:none" points="1834.67,1423.18 1834.67,1404.28 "></polyline>
<polyline clip-path="url(#clip750)" style="stroke:#000000; stroke-linecap:round; stroke-linejoin:round; stroke-width:4; stroke-opacity:1; fill:none" points="2291.13,1423.18 2291.13,1404.28 "></polyline>
<path clip-path="url(#clip750)" d="M459.95 1481.64 L476.269 1481.64 L476.269 1485.58 L454.325 1485.58 L454.325 1481.64 Q456.987 1478.89 461.57 1474.26 Q466.176 1469.61 467.357 1468.27 Q469.602 1465.74 470.482 1464.01 Q471.385 1462.25 471.385 1460.56 Q471.385 1457.8 469.44 1456.07 Q467.519 1454.33 464.417 1454.33 Q462.218 1454.33 459.764 1455.09 Q457.334 1455.86 454.556 1457.41 L454.556 1452.69 Q457.38 1451.55 459.834 1450.97 Q462.288 1450.39 464.325 1450.39 Q469.695 1450.39 472.889 1453.08 Q476.084 1455.77 476.084 1460.26 Q476.084 1462.39 475.274 1464.31 Q474.487 1466.2 472.38 1468.8 Q471.801 1469.47 468.7 1472.69 Q465.598 1475.88 459.95 1481.64 Z" fill="#000000" fill-rule="nonzero" fill-opacity="1"></path><path clip-path="url(#clip750)" d="M924.765 1455.09 L912.96 1473.54 L924.765 1473.54 L924.765 1455.09 M923.539 1451.02 L929.418 1451.02 L929.418 1473.54 L934.349 1473.54 L934.349 1477.43 L929.418 1477.43 L929.418 1485.58 L924.765 1485.58 L924.765 1477.43 L909.164 1477.43 L909.164 1472.92 L923.539 1451.02 Z" fill="#000000" fill-rule="nonzero" fill-opacity="1"></path><path clip-path="url(#clip750)" d="M1378.62 1466.44 Q1375.47 1466.44 1373.62 1468.59 Q1371.79 1470.74 1371.79 1474.49 Q1371.79 1478.22 1373.62 1480.39 Q1375.47 1482.55 1378.62 1482.55 Q1381.77 1482.55 1383.6 1480.39 Q1385.45 1478.22 1385.45 1474.49 Q1385.45 1470.74 1383.6 1468.59 Q1381.77 1466.44 1378.62 1466.44 M1387.9 1451.78 L1387.9 1456.04 Q1386.14 1455.21 1384.34 1454.77 Q1382.56 1454.33 1380.8 1454.33 Q1376.17 1454.33 1373.71 1457.45 Q1371.28 1460.58 1370.94 1466.9 Q1372.3 1464.89 1374.36 1463.82 Q1376.42 1462.73 1378.9 1462.73 Q1384.11 1462.73 1387.12 1465.9 Q1390.15 1469.05 1390.15 1474.49 Q1390.15 1479.82 1387 1483.03 Q1383.85 1486.25 1378.62 1486.25 Q1372.63 1486.25 1369.45 1481.67 Q1366.28 1477.06 1366.28 1468.33 Q1366.28 1460.14 1370.17 1455.28 Q1374.06 1450.39 1380.61 1450.39 Q1382.37 1450.39 1384.15 1450.74 Q1385.96 1451.09 1387.9 1451.78 Z" fill="#000000" fill-rule="nonzero" fill-opacity="1"></path><path clip-path="url(#clip750)" d="M1834.67 1469.17 Q1831.34 1469.17 1829.42 1470.95 Q1827.52 1472.73 1827.52 1475.86 Q1827.52 1478.98 1829.42 1480.77 Q1831.34 1482.55 1834.67 1482.55 Q1838.01 1482.55 1839.93 1480.77 Q1841.85 1478.96 1841.85 1475.86 Q1841.85 1472.73 1839.93 1470.95 Q1838.03 1469.17 1834.67 1469.17 M1830 1467.18 Q1826.99 1466.44 1825.3 1464.38 Q1823.63 1462.32 1823.63 1459.35 Q1823.63 1455.21 1826.57 1452.8 Q1829.54 1450.39 1834.67 1450.39 Q1839.84 1450.39 1842.78 1452.8 Q1845.72 1455.21 1845.72 1459.35 Q1845.72 1462.32 1844.03 1464.38 Q1842.36 1466.44 1839.37 1467.18 Q1842.75 1467.96 1844.63 1470.26 Q1846.53 1472.55 1846.53 1475.86 Q1846.53 1480.88 1843.45 1483.57 Q1840.39 1486.25 1834.67 1486.25 Q1828.96 1486.25 1825.88 1483.57 Q1822.82 1480.88 1822.82 1475.86 Q1822.82 1472.55 1824.72 1470.26 Q1826.62 1467.96 1830 1467.18 M1828.29 1459.79 Q1828.29 1462.48 1829.95 1463.98 Q1831.64 1465.49 1834.67 1465.49 Q1837.68 1465.49 1839.37 1463.98 Q1841.09 1462.48 1841.09 1459.79 Q1841.09 1457.11 1839.37 1455.6 Q1837.68 1454.1 1834.67 1454.1 Q1831.64 1454.1 1829.95 1455.6 Q1828.29 1457.11 1828.29 1459.79 Z" fill="#000000" fill-rule="nonzero" fill-opacity="1"></path><path clip-path="url(#clip750)" d="M2265.82 1481.64 L2273.46 1481.64 L2273.46 1455.28 L2265.15 1456.95 L2265.15 1452.69 L2273.41 1451.02 L2278.09 1451.02 L2278.09 1481.64 L2285.73 1481.64 L2285.73 1485.58 L2265.82 1485.58 L2265.82 1481.64 Z" fill="#000000" fill-rule="nonzero" fill-opacity="1"></path><path clip-path="url(#clip750)" d="M2305.17 1454.1 Q2301.56 1454.1 2299.73 1457.66 Q2297.93 1461.2 2297.93 1468.33 Q2297.93 1475.44 2299.73 1479.01 Q2301.56 1482.55 2305.17 1482.55 Q2308.81 1482.55 2310.61 1479.01 Q2312.44 1475.44 2312.44 1468.33 Q2312.44 1461.2 2310.61 1457.66 Q2308.81 1454.1 2305.17 1454.1 M2305.17 1450.39 Q2310.98 1450.39 2314.04 1455 Q2317.12 1459.58 2317.12 1468.33 Q2317.12 1477.06 2314.04 1481.67 Q2310.98 1486.25 2305.17 1486.25 Q2299.36 1486.25 2296.28 1481.67 Q2293.23 1477.06 2293.23 1468.33 Q2293.23 1459.58 2296.28 1455 Q2299.36 1450.39 2305.17 1450.39 Z" fill="#000000" fill-rule="nonzero" fill-opacity="1"></path><path clip-path="url(#clip750)" d="M1152.11 1520.52 L1182.16 1520.52 L1182.16 1525.93 L1158.54 1525.93 L1158.54 1540 L1181.17 1540 L1181.17 1545.41 L1158.54 1545.41 L1158.54 1562.63 L1182.73 1562.63 L1182.73 1568.04 L1152.11 1568.04 L1152.11 1520.52 Z" fill="#000000" fill-rule="nonzero" fill-opacity="1"></path><path clip-path="url(#clip750)" d="M1198.71 1562.7 L1198.71 1581.6 L1192.82 1581.6 L1192.82 1532.4 L1198.71 1532.4 L1198.71 1537.81 Q1200.55 1534.62 1203.36 1533.1 Q1206.19 1531.54 1210.1 1531.54 Q1216.6 1531.54 1220.64 1536.69 Q1224.71 1541.85 1224.71 1550.25 Q1224.71 1558.65 1220.64 1563.81 Q1216.6 1568.97 1210.1 1568.97 Q1206.19 1568.97 1203.36 1567.44 Q1200.55 1565.88 1198.71 1562.7 M1218.63 1550.25 Q1218.63 1543.79 1215.96 1540.13 Q1213.32 1536.44 1208.67 1536.44 Q1204.02 1536.44 1201.35 1540.13 Q1198.71 1543.79 1198.71 1550.25 Q1198.71 1556.71 1201.35 1560.4 Q1204.02 1564.07 1208.67 1564.07 Q1213.32 1564.07 1215.96 1560.4 Q1218.63 1556.71 1218.63 1550.25 Z" fill="#000000" fill-rule="nonzero" fill-opacity="1"></path><path clip-path="url(#clip750)" d="M1248.23 1536.5 Q1243.52 1536.5 1240.79 1540.19 Q1238.05 1543.85 1238.05 1550.25 Q1238.05 1556.65 1240.75 1560.34 Q1243.49 1564 1248.23 1564 Q1252.91 1564 1255.65 1560.31 Q1258.39 1556.62 1258.39 1550.25 Q1258.39 1543.92 1255.65 1540.23 Q1252.91 1536.5 1248.23 1536.5 M1248.23 1531.54 Q1255.87 1531.54 1260.23 1536.5 Q1264.59 1541.47 1264.59 1550.25 Q1264.59 1559 1260.23 1564 Q1255.87 1568.97 1248.23 1568.97 Q1240.56 1568.97 1236.2 1564 Q1231.87 1559 1231.87 1550.25 Q1231.87 1541.47 1236.2 1536.5 Q1240.56 1531.54 1248.23 1531.54 Z" fill="#000000" fill-rule="nonzero" fill-opacity="1"></path><path clip-path="url(#clip750)" d="M1299.96 1533.76 L1299.96 1539.24 Q1297.47 1537.87 1294.96 1537.2 Q1292.48 1536.5 1289.93 1536.5 Q1284.23 1536.5 1281.08 1540.13 Q1277.93 1543.73 1277.93 1550.25 Q1277.93 1556.78 1281.08 1560.4 Q1284.23 1564 1289.93 1564 Q1292.48 1564 1294.96 1563.33 Q1297.47 1562.63 1299.96 1561.26 L1299.96 1566.68 Q1297.5 1567.82 1294.86 1568.39 Q1292.25 1568.97 1289.29 1568.97 Q1281.24 1568.97 1276.5 1563.91 Q1271.76 1558.85 1271.76 1550.25 Q1271.76 1541.53 1276.53 1536.53 Q1281.34 1531.54 1289.67 1531.54 Q1292.38 1531.54 1294.96 1532.11 Q1297.54 1532.65 1299.96 1533.76 Z" fill="#000000" fill-rule="nonzero" fill-opacity="1"></path><path clip-path="url(#clip750)" d="M1339.77 1546.53 L1339.77 1568.04 L1333.92 1568.04 L1333.92 1546.72 Q1333.92 1541.66 1331.94 1539.14 Q1329.97 1536.63 1326.02 1536.63 Q1321.28 1536.63 1318.54 1539.65 Q1315.81 1542.68 1315.81 1547.9 L1315.81 1568.04 L1309.92 1568.04 L1309.92 1518.52 L1315.81 1518.52 L1315.81 1537.93 Q1317.91 1534.72 1320.74 1533.13 Q1323.6 1531.54 1327.33 1531.54 Q1333.47 1531.54 1336.62 1535.36 Q1339.77 1539.14 1339.77 1546.53 Z" fill="#000000" fill-rule="nonzero" fill-opacity="1"></path><path clip-path="url(#clip750)" d="M1374.18 1533.45 L1374.18 1538.98 Q1371.7 1537.71 1369.02 1537.07 Q1366.35 1536.44 1363.49 1536.44 Q1359.12 1536.44 1356.93 1537.77 Q1354.76 1539.11 1354.76 1541.79 Q1354.76 1543.82 1356.32 1545 Q1357.88 1546.15 1362.59 1547.2 L1364.6 1547.64 Q1370.84 1548.98 1373.45 1551.43 Q1376.09 1553.85 1376.09 1558.21 Q1376.09 1563.17 1372.14 1566.07 Q1368.23 1568.97 1361.35 1568.97 Q1358.49 1568.97 1355.37 1568.39 Q1352.28 1567.85 1348.84 1566.74 L1348.84 1560.69 Q1352.09 1562.38 1355.24 1563.24 Q1358.39 1564.07 1361.48 1564.07 Q1365.62 1564.07 1367.85 1562.66 Q1370.07 1561.23 1370.07 1558.65 Q1370.07 1556.27 1368.45 1554.99 Q1366.86 1553.72 1361.42 1552.54 L1359.38 1552.07 Q1353.94 1550.92 1351.52 1548.56 Q1349.1 1546.18 1349.1 1542.04 Q1349.1 1537.01 1352.66 1534.27 Q1356.23 1531.54 1362.78 1531.54 Q1366.03 1531.54 1368.9 1532.01 Q1371.76 1532.49 1374.18 1533.45 Z" fill="#000000" fill-rule="nonzero" fill-opacity="1"></path><polyline clip-path="url(#clip750)" style="stroke:#000000; stroke-linecap:round; stroke-linejoin:round; stroke-width:4; stroke-opacity:1; fill:none" points="175.445,1423.18 175.445,123.472 "></polyline>
<polyline clip-path="url(#clip750)" style="stroke:#000000; stroke-linecap:round; stroke-linejoin:round; stroke-width:4; stroke-opacity:1; fill:none" points="175.445,1276.85 194.343,1276.85 "></polyline>
<polyline clip-path="url(#clip750)" style="stroke:#000000; stroke-linecap:round; stroke-linejoin:round; stroke-width:4; stroke-opacity:1; fill:none" points="175.445,973.602 194.343,973.602 "></polyline>
<polyline clip-path="url(#clip750)" style="stroke:#000000; stroke-linecap:round; stroke-linejoin:round; stroke-width:4; stroke-opacity:1; fill:none" points="175.445,670.351 194.343,670.351 "></polyline>
<polyline clip-path="url(#clip750)" style="stroke:#000000; stroke-linecap:round; stroke-linejoin:round; stroke-width:4; stroke-opacity:1; fill:none" points="175.445,367.099 194.343,367.099 "></polyline>
<path clip-path="url(#clip750)" d="M123.126 1290.2 L139.445 1290.2 L139.445 1294.13 L117.501 1294.13 L117.501 1290.2 Q120.163 1287.44 124.746 1282.81 Q129.353 1278.16 130.533 1276.82 Q132.779 1274.3 133.658 1272.56 Q134.561 1270.8 134.561 1269.11 Q134.561 1266.36 132.617 1264.62 Q130.695 1262.88 127.593 1262.88 Q125.394 1262.88 122.941 1263.65 Q120.51 1264.41 117.732 1265.96 L117.732 1261.24 Q120.556 1260.11 123.01 1259.53 Q125.464 1258.95 127.501 1258.95 Q132.871 1258.95 136.066 1261.63 Q139.26 1264.32 139.26 1268.81 Q139.26 1270.94 138.45 1272.86 Q137.663 1274.76 135.556 1277.35 Q134.978 1278.02 131.876 1281.24 Q128.774 1284.43 123.126 1290.2 Z" fill="#000000" fill-rule="nonzero" fill-opacity="1"></path><path clip-path="url(#clip750)" d="M132.316 972.248 Q135.672 972.966 137.547 975.234 Q139.445 977.503 139.445 980.836 Q139.445 985.952 135.927 988.753 Q132.408 991.554 125.927 991.554 Q123.751 991.554 121.436 991.114 Q119.144 990.697 116.691 989.841 L116.691 985.327 Q118.635 986.461 120.95 987.04 Q123.265 987.618 125.788 987.618 Q130.186 987.618 132.478 985.882 Q134.792 984.146 134.792 980.836 Q134.792 977.781 132.64 976.068 Q130.51 974.331 126.691 974.331 L122.663 974.331 L122.663 970.489 L126.876 970.489 Q130.325 970.489 132.154 969.123 Q133.982 967.734 133.982 965.142 Q133.982 962.48 132.084 961.068 Q130.209 959.632 126.691 959.632 Q124.769 959.632 122.57 960.049 Q120.371 960.466 117.732 961.345 L117.732 957.179 Q120.394 956.438 122.709 956.068 Q125.047 955.697 127.107 955.697 Q132.431 955.697 135.533 958.128 Q138.635 960.535 138.635 964.656 Q138.635 967.526 136.992 969.517 Q135.348 971.484 132.316 972.248 Z" fill="#000000" fill-rule="nonzero" fill-opacity="1"></path><path clip-path="url(#clip750)" d="M129.862 657.145 L118.056 675.594 L129.862 675.594 L129.862 657.145 M128.635 653.071 L134.515 653.071 L134.515 675.594 L139.445 675.594 L139.445 679.483 L134.515 679.483 L134.515 687.631 L129.862 687.631 L129.862 679.483 L114.26 679.483 L114.26 674.969 L128.635 653.071 Z" fill="#000000" fill-rule="nonzero" fill-opacity="1"></path><path clip-path="url(#clip750)" d="M118.543 349.819 L136.899 349.819 L136.899 353.754 L122.825 353.754 L122.825 362.226 Q123.843 361.879 124.862 361.717 Q125.88 361.532 126.899 361.532 Q132.686 361.532 136.066 364.703 Q139.445 367.874 139.445 373.291 Q139.445 378.87 135.973 381.972 Q132.501 385.05 126.181 385.05 Q124.005 385.05 121.737 384.68 Q119.492 384.309 117.084 383.569 L117.084 378.87 Q119.168 380.004 121.39 380.56 Q123.612 381.115 126.089 381.115 Q130.093 381.115 132.431 379.009 Q134.769 376.902 134.769 373.291 Q134.769 369.68 132.431 367.573 Q130.093 365.467 126.089 365.467 Q124.214 365.467 122.339 365.884 Q120.487 366.3 118.543 367.18 L118.543 349.819 Z" fill="#000000" fill-rule="nonzero" fill-opacity="1"></path><path clip-path="url(#clip750)" d="M16.4842 840.023 L16.4842 833.593 L58.5933 833.593 L58.5933 810.454 L64.0042 810.454 L64.0042 840.023 L16.4842 840.023 Z" fill="#000000" fill-rule="nonzero" fill-opacity="1"></path><path clip-path="url(#clip750)" d="M32.4621 791.293 Q32.4621 796.004 36.1542 798.741 Q39.8145 801.478 46.212 801.478 Q52.6095 801.478 56.3017 798.773 Q59.9619 796.036 59.9619 791.293 Q59.9619 786.614 56.2698 783.877 Q52.5777 781.14 46.212 781.14 Q39.8781 781.14 36.186 783.877 Q32.4621 786.614 32.4621 791.293 M27.4968 791.293 Q27.4968 783.654 32.4621 779.294 Q37.4273 774.933 46.212 774.933 Q54.9649 774.933 59.9619 779.294 Q64.9272 783.654 64.9272 791.293 Q64.9272 798.964 59.9619 803.324 Q54.9649 807.653 46.212 807.653 Q37.4273 807.653 32.4621 803.324 Q27.4968 798.964 27.4968 791.293 Z" fill="#000000" fill-rule="nonzero" fill-opacity="1"></path><path clip-path="url(#clip750)" d="M29.4065 742.5 L34.9447 742.5 Q33.6716 744.983 33.035 747.656 Q32.3984 750.33 32.3984 753.194 Q32.3984 757.555 33.7352 759.751 Q35.072 761.915 37.7456 761.915 Q39.7826 761.915 40.9603 760.356 Q42.1061 758.796 43.1565 754.086 L43.6021 752.08 Q44.9389 745.842 47.3897 743.232 Q49.8086 740.59 54.1691 740.59 Q59.1344 740.59 62.0308 744.537 Q64.9272 748.452 64.9272 755.327 Q64.9272 758.192 64.3543 761.311 Q63.8132 764.398 62.6992 767.836 L56.6518 767.836 Q58.3387 764.589 59.198 761.438 Q60.0256 758.287 60.0256 755.2 Q60.0256 751.062 58.6251 748.834 Q57.1929 746.606 54.6147 746.606 Q52.2276 746.606 50.9545 748.229 Q49.6813 749.821 48.5037 755.263 L48.0262 757.3 Q46.8804 762.743 44.5251 765.162 Q42.138 767.581 38.0002 767.581 Q32.9713 767.581 30.2341 764.016 Q27.4968 760.451 27.4968 753.895 Q27.4968 750.648 27.9743 747.784 Q28.4517 744.919 29.4065 742.5 Z" fill="#000000" fill-rule="nonzero" fill-opacity="1"></path><path clip-path="url(#clip750)" d="M29.4065 708.539 L34.9447 708.539 Q33.6716 711.022 33.035 713.695 Q32.3984 716.369 32.3984 719.233 Q32.3984 723.594 33.7352 725.79 Q35.072 727.954 37.7456 727.954 Q39.7826 727.954 40.9603 726.395 Q42.1061 724.835 43.1565 720.125 L43.6021 718.119 Q44.9389 711.881 47.3897 709.271 Q49.8086 706.629 54.1691 706.629 Q59.1344 706.629 62.0308 710.576 Q64.9272 714.491 64.9272 721.366 Q64.9272 724.23 64.3543 727.35 Q63.8132 730.437 62.6992 733.875 L56.6518 733.875 Q58.3387 730.628 59.198 727.477 Q60.0256 724.326 60.0256 721.239 Q60.0256 717.101 58.6251 714.873 Q57.1929 712.645 54.6147 712.645 Q52.2276 712.645 50.9545 714.268 Q49.6813 715.86 48.5037 721.302 L48.0262 723.339 Q46.8804 728.782 44.5251 731.201 Q42.138 733.62 38.0002 733.62 Q32.9713 733.62 30.2341 730.055 Q27.4968 726.49 27.4968 719.934 Q27.4968 716.687 27.9743 713.823 Q28.4517 710.958 29.4065 708.539 Z" fill="#000000" fill-rule="nonzero" fill-opacity="1"></path><path clip-path="url(#clip750)" d="M701.714 12.096 L752.876 12.096 L752.876 18.9825 L731.407 18.9825 L731.407 72.576 L723.183 72.576 L723.183 18.9825 L701.714 18.9825 L701.714 12.096 Z" fill="#000000" fill-rule="nonzero" fill-opacity="1"></path><path clip-path="url(#clip750)" d="M798.166 45.1919 L798.166 72.576 L790.712 72.576 L790.712 45.4349 Q790.712 38.994 788.2 35.7938 Q785.689 32.5936 780.666 32.5936 Q774.63 32.5936 771.146 36.4419 Q767.662 40.2903 767.662 46.9338 L767.662 72.576 L760.168 72.576 L760.168 9.54393 L767.662 9.54393 L767.662 34.2544 Q770.336 30.163 773.941 28.1376 Q777.587 26.1121 782.327 26.1121 Q790.145 26.1121 794.155 30.9732 Q798.166 35.7938 798.166 45.1919 Z" fill="#000000" fill-rule="nonzero" fill-opacity="1"></path><path clip-path="url(#clip750)" d="M851.84 48.0275 L851.84 51.6733 L817.569 51.6733 Q818.055 59.3701 822.187 63.421 Q826.36 67.4314 833.773 67.4314 Q838.067 67.4314 842.077 66.3781 Q846.128 65.3249 850.098 63.2184 L850.098 70.267 Q846.088 71.9684 841.875 72.8596 Q837.662 73.7508 833.327 73.7508 Q822.471 73.7508 816.111 67.4314 Q809.792 61.1119 809.792 50.3365 Q809.792 39.1965 815.787 32.6746 Q821.823 26.1121 832.031 26.1121 Q841.186 26.1121 846.493 32.0264 Q851.84 37.9003 851.84 48.0275 M844.386 45.84 Q844.305 39.7232 840.943 36.0774 Q837.621 32.4315 832.112 32.4315 Q825.874 32.4315 822.106 35.9558 Q818.38 39.4801 817.812 45.8805 L844.386 45.84 Z" fill="#000000" fill-rule="nonzero" fill-opacity="1"></path><path clip-path="url(#clip750)" d="M929.253 48.0275 L929.253 51.6733 L894.982 51.6733 Q895.468 59.3701 899.6 63.421 Q903.773 67.4314 911.186 67.4314 Q915.48 67.4314 919.49 66.3781 Q923.541 65.3249 927.511 63.2184 L927.511 70.267 Q923.501 71.9684 919.288 72.8596 Q915.075 73.7508 910.74 73.7508 Q899.884 73.7508 893.524 67.4314 Q887.204 61.1119 887.204 50.3365 Q887.204 39.1965 893.2 32.6746 Q899.236 26.1121 909.444 26.1121 Q918.599 26.1121 923.906 32.0264 Q929.253 37.9003 929.253 48.0275 M921.799 45.84 Q921.718 39.7232 918.356 36.0774 Q915.034 32.4315 909.525 32.4315 Q903.287 32.4315 899.519 35.9558 Q895.792 39.4801 895.225 45.8805 L921.799 45.84 Z" fill="#000000" fill-rule="nonzero" fill-opacity="1"></path><path clip-path="url(#clip750)" d="M964.455 9.54393 L964.455 15.7418 L957.326 15.7418 Q953.315 15.7418 951.735 17.3622 Q950.196 18.9825 950.196 23.1955 L950.196 27.2059 L962.47 27.2059 L962.47 32.9987 L950.196 32.9987 L950.196 72.576 L942.702 72.576 L942.702 32.9987 L935.572 32.9987 L935.572 27.2059 L942.702 27.2059 L942.702 24.0462 Q942.702 16.471 946.226 13.0277 Q949.75 9.54393 957.407 9.54393 L964.455 9.54393 Z" fill="#000000" fill-rule="nonzero" fill-opacity="1"></path><path clip-path="url(#clip750)" d="M993.662 9.54393 L993.662 15.7418 L986.533 15.7418 Q982.522 15.7418 980.942 17.3622 Q979.403 18.9825 979.403 23.1955 L979.403 27.2059 L991.677 27.2059 L991.677 32.9987 L979.403 32.9987 L979.403 72.576 L971.909 72.576 L971.909 32.9987 L964.779 32.9987 L964.779 27.2059 L971.909 27.2059 L971.909 24.0462 Q971.909 16.471 975.433 13.0277 Q978.957 9.54393 986.614 9.54393 L993.662 9.54393 Z" fill="#000000" fill-rule="nonzero" fill-opacity="1"></path><path clip-path="url(#clip750)" d="M1038.71 48.0275 L1038.71 51.6733 L1004.44 51.6733 Q1004.92 59.3701 1009.06 63.421 Q1013.23 67.4314 1020.64 67.4314 Q1024.94 67.4314 1028.95 66.3781 Q1033 65.3249 1036.97 63.2184 L1036.97 70.267 Q1032.96 71.9684 1028.74 72.8596 Q1024.53 73.7508 1020.2 73.7508 Q1009.34 73.7508 1002.98 67.4314 Q996.66 61.1119 996.66 50.3365 Q996.66 39.1965 1002.66 32.6746 Q1008.69 26.1121 1018.9 26.1121 Q1028.05 26.1121 1033.36 32.0264 Q1038.71 37.9003 1038.71 48.0275 M1031.25 45.84 Q1031.17 39.7232 1027.81 36.0774 Q1024.49 32.4315 1018.98 32.4315 Q1012.74 32.4315 1008.97 35.9558 Q1005.25 39.4801 1004.68 45.8805 L1031.25 45.84 Z" fill="#000000" fill-rule="nonzero" fill-opacity="1"></path><path clip-path="url(#clip750)" d="M1083.59 28.9478 L1083.59 35.9153 Q1080.43 34.1734 1077.23 33.3227 Q1074.07 32.4315 1070.83 32.4315 Q1063.58 32.4315 1059.57 37.0496 Q1055.56 41.6271 1055.56 49.9314 Q1055.56 58.2358 1059.57 62.8538 Q1063.58 67.4314 1070.83 67.4314 Q1074.07 67.4314 1077.23 66.5807 Q1080.43 65.6895 1083.59 63.9476 L1083.59 70.8341 Q1080.47 72.2924 1077.11 73.0216 Q1073.79 73.7508 1070.02 73.7508 Q1059.77 73.7508 1053.74 67.3098 Q1047.7 60.8689 1047.7 49.9314 Q1047.7 38.832 1053.78 32.472 Q1059.89 26.1121 1070.51 26.1121 Q1073.95 26.1121 1077.23 26.8413 Q1080.51 27.5299 1083.59 28.9478 Z" fill="#000000" fill-rule="nonzero" fill-opacity="1"></path><path clip-path="url(#clip750)" d="M1103.93 14.324 L1103.93 27.2059 L1119.28 27.2059 L1119.28 32.9987 L1103.93 32.9987 L1103.93 57.6282 Q1103.93 63.1779 1105.43 64.7578 Q1106.97 66.3376 1111.62 66.3376 L1119.28 66.3376 L1119.28 72.576 L1111.62 72.576 Q1103 72.576 1099.71 69.3758 Q1096.43 66.1351 1096.43 57.6282 L1096.43 32.9987 L1090.96 32.9987 L1090.96 27.2059 L1096.43 27.2059 L1096.43 14.324 L1103.93 14.324 Z" fill="#000000" fill-rule="nonzero" fill-opacity="1"></path><path clip-path="url(#clip750)" d="M1173.04 32.4315 Q1167.04 32.4315 1163.56 37.1306 Q1160.07 41.7891 1160.07 49.9314 Q1160.07 58.0738 1163.52 62.7728 Q1167 67.4314 1173.04 67.4314 Q1178.99 67.4314 1182.47 62.7323 Q1185.96 58.0333 1185.96 49.9314 Q1185.96 41.8701 1182.47 37.1711 Q1178.99 32.4315 1173.04 32.4315 M1173.04 26.1121 Q1182.76 26.1121 1188.31 32.4315 Q1193.86 38.7509 1193.86 49.9314 Q1193.86 61.0714 1188.31 67.4314 Q1182.76 73.7508 1173.04 73.7508 Q1163.27 73.7508 1157.72 67.4314 Q1152.21 61.0714 1152.21 49.9314 Q1152.21 38.7509 1157.72 32.4315 Q1163.27 26.1121 1173.04 26.1121 Z" fill="#000000" fill-rule="nonzero" fill-opacity="1"></path><path clip-path="url(#clip750)" d="M1229.18 9.54393 L1229.18 15.7418 L1222.05 15.7418 Q1218.04 15.7418 1216.46 17.3622 Q1214.92 18.9825 1214.92 23.1955 L1214.92 27.2059 L1227.2 27.2059 L1227.2 32.9987 L1214.92 32.9987 L1214.92 72.576 L1207.43 72.576 L1207.43 32.9987 L1200.3 32.9987 L1200.3 27.2059 L1207.43 27.2059 L1207.43 24.0462 Q1207.43 16.471 1210.95 13.0277 Q1214.48 9.54393 1222.13 9.54393 L1229.18 9.54393 Z" fill="#000000" fill-rule="nonzero" fill-opacity="1"></path><path clip-path="url(#clip750)" d="M1261.79 9.54393 L1269.25 9.54393 L1269.25 72.576 L1261.79 72.576 L1261.79 9.54393 Z" fill="#000000" fill-rule="nonzero" fill-opacity="1"></path><path clip-path="url(#clip750)" d="M1323.65 48.0275 L1323.65 51.6733 L1289.38 51.6733 Q1289.86 59.3701 1294 63.421 Q1298.17 67.4314 1305.58 67.4314 Q1309.88 67.4314 1313.89 66.3781 Q1317.94 65.3249 1321.91 63.2184 L1321.91 70.267 Q1317.9 71.9684 1313.68 72.8596 Q1309.47 73.7508 1305.14 73.7508 Q1294.28 73.7508 1287.92 67.4314 Q1281.6 61.1119 1281.6 50.3365 Q1281.6 39.1965 1287.6 32.6746 Q1293.63 26.1121 1303.84 26.1121 Q1312.99 26.1121 1318.3 32.0264 Q1323.65 37.9003 1323.65 48.0275 M1316.2 45.84 Q1316.11 39.7232 1312.75 36.0774 Q1309.43 32.4315 1303.92 32.4315 Q1297.68 32.4315 1293.92 35.9558 Q1290.19 39.4801 1289.62 45.8805 L1316.2 45.84 Z" fill="#000000" fill-rule="nonzero" fill-opacity="1"></path><path clip-path="url(#clip750)" d="M1356.5 49.7694 Q1347.47 49.7694 1343.98 51.8354 Q1340.5 53.9013 1340.5 58.8839 Q1340.5 62.8538 1343.09 65.2034 Q1345.73 67.5124 1350.22 67.5124 Q1356.42 67.5124 1360.15 63.1374 Q1363.91 58.7219 1363.91 51.4303 L1363.91 49.7694 L1356.5 49.7694 M1371.37 46.6907 L1371.37 72.576 L1363.91 72.576 L1363.91 65.6895 Q1361.36 69.8214 1357.55 71.8063 Q1353.75 73.7508 1348.24 73.7508 Q1341.27 73.7508 1337.14 69.8619 Q1333.05 65.9325 1333.05 59.3701 Q1333.05 51.7138 1338.15 47.825 Q1343.3 43.9361 1353.46 43.9361 L1363.91 43.9361 L1363.91 43.2069 Q1363.91 38.0623 1360.51 35.2672 Q1357.15 32.4315 1351.03 32.4315 Q1347.14 32.4315 1343.46 33.3632 Q1339.77 34.295 1336.37 36.1584 L1336.37 29.2718 Q1340.46 27.692 1344.31 26.9223 Q1348.16 26.1121 1351.8 26.1121 Q1361.65 26.1121 1366.51 31.2163 Q1371.37 36.3204 1371.37 46.6907 Z" fill="#000000" fill-rule="nonzero" fill-opacity="1"></path><path clip-path="url(#clip750)" d="M1413.01 34.1734 Q1411.76 33.4443 1410.26 33.1202 Q1408.8 32.7556 1407.02 32.7556 Q1400.7 32.7556 1397.29 36.8875 Q1393.93 40.9789 1393.93 48.6757 L1393.93 72.576 L1386.44 72.576 L1386.44 27.2059 L1393.93 27.2059 L1393.93 34.2544 Q1396.28 30.1225 1400.05 28.1376 Q1403.82 26.1121 1409.2 26.1121 Q1409.97 26.1121 1410.91 26.2337 Q1411.84 26.3147 1412.97 26.5172 L1413.01 34.1734 Z" fill="#000000" fill-rule="nonzero" fill-opacity="1"></path><path clip-path="url(#clip750)" d="M1457.09 45.1919 L1457.09 72.576 L1449.63 72.576 L1449.63 45.4349 Q1449.63 38.994 1447.12 35.7938 Q1444.61 32.5936 1439.59 32.5936 Q1433.55 32.5936 1430.07 36.4419 Q1426.58 40.2903 1426.58 46.9338 L1426.58 72.576 L1419.09 72.576 L1419.09 27.2059 L1426.58 27.2059 L1426.58 34.2544 Q1429.26 30.163 1432.86 28.1376 Q1436.51 26.1121 1441.25 26.1121 Q1449.06 26.1121 1453.08 30.9732 Q1457.09 35.7938 1457.09 45.1919 Z" fill="#000000" fill-rule="nonzero" fill-opacity="1"></path><path clip-path="url(#clip750)" d="M1471.95 27.2059 L1479.41 27.2059 L1479.41 72.576 L1471.95 72.576 L1471.95 27.2059 M1471.95 9.54393 L1479.41 9.54393 L1479.41 18.9825 L1471.95 18.9825 L1471.95 9.54393 Z" fill="#000000" fill-rule="nonzero" fill-opacity="1"></path><path clip-path="url(#clip750)" d="M1532.72 45.1919 L1532.72 72.576 L1525.26 72.576 L1525.26 45.4349 Q1525.26 38.994 1522.75 35.7938 Q1520.24 32.5936 1515.22 32.5936 Q1509.18 32.5936 1505.7 36.4419 Q1502.21 40.2903 1502.21 46.9338 L1502.21 72.576 L1494.72 72.576 L1494.72 27.2059 L1502.21 27.2059 L1502.21 34.2544 Q1504.89 30.163 1508.49 28.1376 Q1512.14 26.1121 1516.88 26.1121 Q1524.7 26.1121 1528.71 30.9732 Q1532.72 35.7938 1532.72 45.1919 Z" fill="#000000" fill-rule="nonzero" fill-opacity="1"></path><path clip-path="url(#clip750)" d="M1577.44 49.3643 Q1577.44 41.2625 1574.08 36.8065 Q1570.75 32.3505 1564.72 32.3505 Q1558.72 32.3505 1555.36 36.8065 Q1552.04 41.2625 1552.04 49.3643 Q1552.04 57.4256 1555.36 61.8816 Q1558.72 66.3376 1564.72 66.3376 Q1570.75 66.3376 1574.08 61.8816 Q1577.44 57.4256 1577.44 49.3643 M1584.89 66.9452 Q1584.89 78.5308 1579.75 84.1616 Q1574.6 89.8329 1563.99 89.8329 Q1560.06 89.8329 1556.58 89.2252 Q1553.09 88.6581 1549.81 87.4428 L1549.81 80.1917 Q1553.09 81.9741 1556.29 82.8248 Q1559.49 83.6755 1562.81 83.6755 Q1570.15 83.6755 1573.79 79.8271 Q1577.44 76.0193 1577.44 68.282 L1577.44 64.5957 Q1575.13 68.6061 1571.52 70.5911 Q1567.92 72.576 1562.9 72.576 Q1554.55 72.576 1549.45 66.2161 Q1544.34 59.8562 1544.34 49.3643 Q1544.34 38.832 1549.45 32.472 Q1554.55 26.1121 1562.9 26.1121 Q1567.92 26.1121 1571.52 28.0971 Q1575.13 30.082 1577.44 34.0924 L1577.44 27.2059 L1584.89 27.2059 L1584.89 66.9452 Z" fill="#000000" fill-rule="nonzero" fill-opacity="1"></path><path clip-path="url(#clip750)" d="M1652.91 34.1734 Q1651.65 33.4443 1650.15 33.1202 Q1648.69 32.7556 1646.91 32.7556 Q1640.59 32.7556 1637.19 36.8875 Q1633.83 40.9789 1633.83 48.6757 L1633.83 72.576 L1626.33 72.576 L1626.33 27.2059 L1633.83 27.2059 L1633.83 34.2544 Q1636.18 30.1225 1639.94 28.1376 Q1643.71 26.1121 1649.1 26.1121 Q1649.87 26.1121 1650.8 26.2337 Q1651.73 26.3147 1652.87 26.5172 L1652.91 34.1734 Z" fill="#000000" fill-rule="nonzero" fill-opacity="1"></path><path clip-path="url(#clip750)" d="M1681.34 49.7694 Q1672.31 49.7694 1668.83 51.8354 Q1665.34 53.9013 1665.34 58.8839 Q1665.34 62.8538 1667.94 65.2034 Q1670.57 67.5124 1675.06 67.5124 Q1681.26 67.5124 1684.99 63.1374 Q1688.76 58.7219 1688.76 51.4303 L1688.76 49.7694 L1681.34 49.7694 M1696.21 46.6907 L1696.21 72.576 L1688.76 72.576 L1688.76 65.6895 Q1686.2 69.8214 1682.4 71.8063 Q1678.59 73.7508 1673.08 73.7508 Q1666.11 73.7508 1661.98 69.8619 Q1657.89 65.9325 1657.89 59.3701 Q1657.89 51.7138 1662.99 47.825 Q1668.14 43.9361 1678.31 43.9361 L1688.76 43.9361 L1688.76 43.2069 Q1688.76 38.0623 1685.35 35.2672 Q1681.99 32.4315 1675.87 32.4315 Q1671.99 32.4315 1668.3 33.3632 Q1664.61 34.295 1661.21 36.1584 L1661.21 29.2718 Q1665.3 27.692 1669.15 26.9223 Q1673 26.1121 1676.64 26.1121 Q1686.49 26.1121 1691.35 31.2163 Q1696.21 36.3204 1696.21 46.6907 Z" fill="#000000" fill-rule="nonzero" fill-opacity="1"></path><path clip-path="url(#clip750)" d="M1718.94 14.324 L1718.94 27.2059 L1734.29 27.2059 L1734.29 32.9987 L1718.94 32.9987 L1718.94 57.6282 Q1718.94 63.1779 1720.43 64.7578 Q1721.97 66.3376 1726.63 66.3376 L1734.29 66.3376 L1734.29 72.576 L1726.63 72.576 Q1718 72.576 1714.72 69.3758 Q1711.44 66.1351 1711.44 57.6282 L1711.44 32.9987 L1705.97 32.9987 L1705.97 27.2059 L1711.44 27.2059 L1711.44 14.324 L1718.94 14.324 Z" fill="#000000" fill-rule="nonzero" fill-opacity="1"></path><path clip-path="url(#clip750)" d="M1782.9 48.0275 L1782.9 51.6733 L1748.63 51.6733 Q1749.12 59.3701 1753.25 63.421 Q1757.42 67.4314 1764.83 67.4314 Q1769.13 67.4314 1773.14 66.3781 Q1777.19 65.3249 1781.16 63.2184 L1781.16 70.267 Q1777.15 71.9684 1772.93 72.8596 Q1768.72 73.7508 1764.39 73.7508 Q1753.53 73.7508 1747.17 67.4314 Q1740.85 61.1119 1740.85 50.3365 Q1740.85 39.1965 1746.85 32.6746 Q1752.88 26.1121 1763.09 26.1121 Q1772.25 26.1121 1777.55 32.0264 Q1782.9 37.9003 1782.9 48.0275 M1775.45 45.84 Q1775.37 39.7232 1772 36.0774 Q1768.68 32.4315 1763.17 32.4315 Q1756.93 32.4315 1753.17 35.9558 Q1749.44 39.4801 1748.87 45.8805 L1775.45 45.84 Z" fill="#000000" fill-rule="nonzero" fill-opacity="1"></path><path clip-path="url(#clip750)" d="M1824.06 28.5427 L1824.06 35.5912 Q1820.9 33.9709 1817.49 33.1607 Q1814.09 32.3505 1810.45 32.3505 Q1804.9 32.3505 1802.1 34.0519 Q1799.35 35.7533 1799.35 39.156 Q1799.35 41.7486 1801.33 43.2475 Q1803.32 44.7058 1809.31 46.0426 L1811.86 46.6097 Q1819.8 48.3111 1823.13 51.4303 Q1826.49 54.509 1826.49 60.0587 Q1826.49 66.3781 1821.46 70.0644 Q1816.48 73.7508 1807.73 73.7508 Q1804.09 73.7508 1800.12 73.0216 Q1796.19 72.3329 1791.81 70.9151 L1791.81 63.2184 Q1795.94 65.3654 1799.95 66.4591 Q1803.96 67.5124 1807.89 67.5124 Q1813.16 67.5124 1816 65.73 Q1818.83 63.9071 1818.83 60.6258 Q1818.83 57.5877 1816.77 55.9673 Q1814.74 54.3469 1807.81 52.8481 L1805.22 52.2405 Q1798.29 50.7821 1795.21 47.7845 Q1792.14 44.7463 1792.14 39.4801 Q1792.14 33.0797 1796.67 29.5959 Q1801.21 26.1121 1809.55 26.1121 Q1813.69 26.1121 1817.33 26.7198 Q1820.98 27.3274 1824.06 28.5427 Z" fill="#000000" fill-rule="nonzero" fill-opacity="1"></path><polyline clip-path="url(#clip752)" style="stroke:#009af9; stroke-linecap:round; stroke-linejoin:round; stroke-width:4; stroke-opacity:1; fill:none" points="237.067,160.256 465.297,383.739 693.526,566.551 921.756,716.104 1149.99,838.458 1378.22,938.561 1606.45,1020.46 1834.67,1087.44 2062.9,1142.23 2291.13,1187.02 "></polyline>
<polyline clip-path="url(#clip752)" style="stroke:#e26f46; stroke-linecap:round; stroke-linejoin:round; stroke-width:4; stroke-opacity:1; fill:none" points="237.067,1206.49 465.297,1364.92 693.526,1382.66 921.756,1384.59 1149.99,1384.9 1378.22,1385.07 1606.45,1385.27 1834.67,1385.53 2062.9,1385.89 2291.13,1386.4 "></polyline>
<polyline clip-path="url(#clip752)" style="stroke:#3da44d; stroke-linecap:round; stroke-linejoin:round; stroke-width:4; stroke-opacity:1; fill:none" points="237.067,160.256 465.297,383.739 693.526,566.551 921.756,716.104 1149.99,838.458 1378.22,938.561 1606.45,1020.46 1834.67,1087.44 2062.9,1142.23 2291.13,1187.02 "></polyline>
<polyline clip-path="url(#clip752)" style="stroke:#c271d2; stroke-linecap:round; stroke-linejoin:round; stroke-width:4; stroke-opacity:1; fill:none" points="237.067,1206.49 465.297,1364.92 693.526,1382.66 921.756,1384.59 1149.99,1384.9 1378.22,1385.07 1606.45,1385.27 1834.67,1385.53 2062.9,1385.89 2291.13,1386.4 "></polyline>
<path clip-path="url(#clip750)" d="M1837.43 425.996 L2280.18 425.996 L2280.18 166.796 L1837.43 166.796  Z" fill="#ffffff" fill-rule="evenodd" fill-opacity="1"></path>
<polyline clip-path="url(#clip750)" style="stroke:#000000; stroke-linecap:round; stroke-linejoin:round; stroke-width:4; stroke-opacity:1; fill:none" points="1837.43,425.996 2280.18,425.996 2280.18,166.796 1837.43,166.796 1837.43,425.996 "></polyline>
<polyline clip-path="url(#clip750)" style="stroke:#009af9; stroke-linecap:round; stroke-linejoin:round; stroke-width:4; stroke-opacity:1; fill:none" points="1861.62,218.636 2006.77,218.636 "></polyline>
<path clip-path="url(#clip750)" d="M2030.96 199.897 L2035.22 199.897 L2035.22 235.916 L2030.96 235.916 L2030.96 199.897 Z" fill="#000000" fill-rule="nonzero" fill-opacity="1"></path><path clip-path="url(#clip750)" d="M2044.74 230.036 L2049.62 230.036 L2049.62 235.916 L2044.74 235.916 L2044.74 230.036 Z" fill="#000000" fill-rule="nonzero" fill-opacity="1"></path><path clip-path="url(#clip750)" d="M2074.23 213.971 Q2073.51 213.555 2072.65 213.37 Q2071.82 213.161 2070.8 213.161 Q2067.19 213.161 2065.25 215.522 Q2063.33 217.86 2063.33 222.258 L2063.33 235.916 L2059.04 235.916 L2059.04 209.99 L2063.33 209.99 L2063.33 214.018 Q2064.67 211.657 2066.82 210.522 Q2068.97 209.365 2072.05 209.365 Q2072.49 209.365 2073.02 209.434 Q2073.56 209.481 2074.21 209.596 L2074.23 213.971 Z" fill="#000000" fill-rule="nonzero" fill-opacity="1"></path><path clip-path="url(#clip750)" d="M2074.95 230.036 L2079.83 230.036 L2079.83 235.916 L2074.95 235.916 L2074.95 230.036 Z" fill="#000000" fill-rule="nonzero" fill-opacity="1"></path><path clip-path="url(#clip750)" d="M2105.04 214.388 L2134.71 214.388 L2134.71 218.277 L2105.04 218.277 L2105.04 214.388 M2105.04 223.832 L2134.71 223.832 L2134.71 227.768 L2105.04 227.768 L2105.04 223.832 Z" fill="#000000" fill-rule="nonzero" fill-opacity="1"></path><path clip-path="url(#clip750)" d="M2169.88 204.434 Q2166.26 204.434 2164.44 207.999 Q2162.63 211.541 2162.63 218.67 Q2162.63 225.777 2164.44 229.342 Q2166.26 232.883 2169.88 232.883 Q2173.51 232.883 2175.32 229.342 Q2177.14 225.777 2177.14 218.67 Q2177.14 211.541 2175.32 207.999 Q2173.51 204.434 2169.88 204.434 M2169.88 200.731 Q2175.69 200.731 2178.74 205.337 Q2181.82 209.92 2181.82 218.67 Q2181.82 227.397 2178.74 232.004 Q2175.69 236.587 2169.88 236.587 Q2164.07 236.587 2160.99 232.004 Q2157.93 227.397 2157.93 218.67 Q2157.93 209.92 2160.99 205.337 Q2164.07 200.731 2169.88 200.731 Z" fill="#000000" fill-rule="nonzero" fill-opacity="1"></path><path clip-path="url(#clip750)" d="M2190.04 230.036 L2194.92 230.036 L2194.92 235.916 L2190.04 235.916 L2190.04 230.036 Z" fill="#000000" fill-rule="nonzero" fill-opacity="1"></path><path clip-path="url(#clip750)" d="M2215.11 204.434 Q2211.5 204.434 2209.67 207.999 Q2207.86 211.541 2207.86 218.67 Q2207.86 225.777 2209.67 229.342 Q2211.5 232.883 2215.11 232.883 Q2218.74 232.883 2220.55 229.342 Q2222.38 225.777 2222.38 218.67 Q2222.38 211.541 2220.55 207.999 Q2218.74 204.434 2215.11 204.434 M2215.11 200.731 Q2220.92 200.731 2223.97 205.337 Q2227.05 209.92 2227.05 218.67 Q2227.05 227.397 2223.97 232.004 Q2220.92 236.587 2215.11 236.587 Q2209.3 236.587 2206.22 232.004 Q2203.16 227.397 2203.16 218.67 Q2203.16 209.92 2206.22 205.337 Q2209.3 200.731 2215.11 200.731 Z" fill="#000000" fill-rule="nonzero" fill-opacity="1"></path><path clip-path="url(#clip750)" d="M2236.08 231.981 L2243.72 231.981 L2243.72 205.615 L2235.41 207.282 L2235.41 203.022 L2243.67 201.356 L2248.35 201.356 L2248.35 231.981 L2255.99 231.981 L2255.99 235.916 L2236.08 235.916 L2236.08 231.981 Z" fill="#000000" fill-rule="nonzero" fill-opacity="1"></path><polyline clip-path="url(#clip750)" style="stroke:#e26f46; stroke-linecap:round; stroke-linejoin:round; stroke-width:4; stroke-opacity:1; fill:none" points="1861.62,270.476 2006.77,270.476 "></polyline>
<path clip-path="url(#clip750)" d="M2030.96 251.737 L2035.22 251.737 L2035.22 287.756 L2030.96 287.756 L2030.96 251.737 Z" fill="#000000" fill-rule="nonzero" fill-opacity="1"></path><path clip-path="url(#clip750)" d="M2044.74 281.876 L2049.62 281.876 L2049.62 287.756 L2044.74 287.756 L2044.74 281.876 Z" fill="#000000" fill-rule="nonzero" fill-opacity="1"></path><path clip-path="url(#clip750)" d="M2074.23 265.811 Q2073.51 265.395 2072.65 265.21 Q2071.82 265.001 2070.8 265.001 Q2067.19 265.001 2065.25 267.362 Q2063.33 269.7 2063.33 274.098 L2063.33 287.756 L2059.04 287.756 L2059.04 261.83 L2063.33 261.83 L2063.33 265.858 Q2064.67 263.497 2066.82 262.362 Q2068.97 261.205 2072.05 261.205 Q2072.49 261.205 2073.02 261.274 Q2073.56 261.321 2074.21 261.436 L2074.23 265.811 Z" fill="#000000" fill-rule="nonzero" fill-opacity="1"></path><path clip-path="url(#clip750)" d="M2074.95 281.876 L2079.83 281.876 L2079.83 287.756 L2074.95 287.756 L2074.95 281.876 Z" fill="#000000" fill-rule="nonzero" fill-opacity="1"></path><path clip-path="url(#clip750)" d="M2105.04 266.228 L2134.71 266.228 L2134.71 270.117 L2105.04 270.117 L2105.04 266.228 M2105.04 275.672 L2134.71 275.672 L2134.71 279.608 L2105.04 279.608 L2105.04 275.672 Z" fill="#000000" fill-rule="nonzero" fill-opacity="1"></path><path clip-path="url(#clip750)" d="M2169.88 256.274 Q2166.26 256.274 2164.44 259.839 Q2162.63 263.381 2162.63 270.51 Q2162.63 277.617 2164.44 281.182 Q2166.26 284.723 2169.88 284.723 Q2173.51 284.723 2175.32 281.182 Q2177.14 277.617 2177.14 270.51 Q2177.14 263.381 2175.32 259.839 Q2173.51 256.274 2169.88 256.274 M2169.88 252.571 Q2175.69 252.571 2178.74 257.177 Q2181.82 261.76 2181.82 270.51 Q2181.82 279.237 2178.74 283.844 Q2175.69 288.427 2169.88 288.427 Q2164.07 288.427 2160.99 283.844 Q2157.93 279.237 2157.93 270.51 Q2157.93 261.76 2160.99 257.177 Q2164.07 252.571 2169.88 252.571 Z" fill="#000000" fill-rule="nonzero" fill-opacity="1"></path><path clip-path="url(#clip750)" d="M2190.04 281.876 L2194.92 281.876 L2194.92 287.756 L2190.04 287.756 L2190.04 281.876 Z" fill="#000000" fill-rule="nonzero" fill-opacity="1"></path><path clip-path="url(#clip750)" d="M2215.11 256.274 Q2211.5 256.274 2209.67 259.839 Q2207.86 263.381 2207.86 270.51 Q2207.86 277.617 2209.67 281.182 Q2211.5 284.723 2215.11 284.723 Q2218.74 284.723 2220.55 281.182 Q2222.38 277.617 2222.38 270.51 Q2222.38 263.381 2220.55 259.839 Q2218.74 256.274 2215.11 256.274 M2215.11 252.571 Q2220.92 252.571 2223.97 257.177 Q2227.05 261.76 2227.05 270.51 Q2227.05 279.237 2223.97 283.844 Q2220.92 288.427 2215.11 288.427 Q2209.3 288.427 2206.22 283.844 Q2203.16 279.237 2203.16 270.51 Q2203.16 261.76 2206.22 257.177 Q2209.3 252.571 2215.11 252.571 Z" fill="#000000" fill-rule="nonzero" fill-opacity="1"></path><path clip-path="url(#clip750)" d="M2236.08 283.821 L2243.72 283.821 L2243.72 257.455 L2235.41 259.122 L2235.41 254.862 L2243.67 253.196 L2248.35 253.196 L2248.35 283.821 L2255.99 283.821 L2255.99 287.756 L2236.08 287.756 L2236.08 283.821 Z" fill="#000000" fill-rule="nonzero" fill-opacity="1"></path><polyline clip-path="url(#clip750)" style="stroke:#3da44d; stroke-linecap:round; stroke-linejoin:round; stroke-width:4; stroke-opacity:1; fill:none" points="1861.62,322.316 2006.77,322.316 "></polyline>
<path clip-path="url(#clip750)" d="M2030.96 303.577 L2035.22 303.577 L2035.22 339.596 L2030.96 339.596 L2030.96 303.577 Z" fill="#000000" fill-rule="nonzero" fill-opacity="1"></path><path clip-path="url(#clip750)" d="M2044.74 333.716 L2049.62 333.716 L2049.62 339.596 L2044.74 339.596 L2044.74 333.716 Z" fill="#000000" fill-rule="nonzero" fill-opacity="1"></path><path clip-path="url(#clip750)" d="M2074.23 317.651 Q2073.51 317.235 2072.65 317.05 Q2071.82 316.841 2070.8 316.841 Q2067.19 316.841 2065.25 319.202 Q2063.33 321.54 2063.33 325.938 L2063.33 339.596 L2059.04 339.596 L2059.04 313.67 L2063.33 313.67 L2063.33 317.698 Q2064.67 315.337 2066.82 314.202 Q2068.97 313.045 2072.05 313.045 Q2072.49 313.045 2073.02 313.114 Q2073.56 313.161 2074.21 313.276 L2074.23 317.651 Z" fill="#000000" fill-rule="nonzero" fill-opacity="1"></path><path clip-path="url(#clip750)" d="M2074.95 333.716 L2079.83 333.716 L2079.83 339.596 L2074.95 339.596 L2074.95 333.716 Z" fill="#000000" fill-rule="nonzero" fill-opacity="1"></path><path clip-path="url(#clip750)" d="M2105.04 318.068 L2134.71 318.068 L2134.71 321.957 L2105.04 321.957 L2105.04 318.068 M2105.04 327.512 L2134.71 327.512 L2134.71 331.448 L2105.04 331.448 L2105.04 327.512 Z" fill="#000000" fill-rule="nonzero" fill-opacity="1"></path><path clip-path="url(#clip750)" d="M2169.88 308.114 Q2166.26 308.114 2164.44 311.679 Q2162.63 315.221 2162.63 322.35 Q2162.63 329.457 2164.44 333.022 Q2166.26 336.563 2169.88 336.563 Q2173.51 336.563 2175.32 333.022 Q2177.14 329.457 2177.14 322.35 Q2177.14 315.221 2175.32 311.679 Q2173.51 308.114 2169.88 308.114 M2169.88 304.411 Q2175.69 304.411 2178.74 309.017 Q2181.82 313.6 2181.82 322.35 Q2181.82 331.077 2178.74 335.684 Q2175.69 340.267 2169.88 340.267 Q2164.07 340.267 2160.99 335.684 Q2157.93 331.077 2157.93 322.35 Q2157.93 313.6 2160.99 309.017 Q2164.07 304.411 2169.88 304.411 Z" fill="#000000" fill-rule="nonzero" fill-opacity="1"></path><path clip-path="url(#clip750)" d="M2190.04 333.716 L2194.92 333.716 L2194.92 339.596 L2190.04 339.596 L2190.04 333.716 Z" fill="#000000" fill-rule="nonzero" fill-opacity="1"></path><path clip-path="url(#clip750)" d="M2205.92 335.661 L2213.56 335.661 L2213.56 309.295 L2205.25 310.962 L2205.25 306.702 L2213.51 305.036 L2218.19 305.036 L2218.19 335.661 L2225.82 335.661 L2225.82 339.596 L2205.92 339.596 L2205.92 335.661 Z" fill="#000000" fill-rule="nonzero" fill-opacity="1"></path><polyline clip-path="url(#clip750)" style="stroke:#c271d2; stroke-linecap:round; stroke-linejoin:round; stroke-width:4; stroke-opacity:1; fill:none" points="1861.62,374.156 2006.77,374.156 "></polyline>
<path clip-path="url(#clip750)" d="M2030.96 355.417 L2035.22 355.417 L2035.22 391.436 L2030.96 391.436 L2030.96 355.417 Z" fill="#000000" fill-rule="nonzero" fill-opacity="1"></path><path clip-path="url(#clip750)" d="M2044.74 385.556 L2049.62 385.556 L2049.62 391.436 L2044.74 391.436 L2044.74 385.556 Z" fill="#000000" fill-rule="nonzero" fill-opacity="1"></path><path clip-path="url(#clip750)" d="M2074.23 369.491 Q2073.51 369.075 2072.65 368.89 Q2071.82 368.681 2070.8 368.681 Q2067.19 368.681 2065.25 371.042 Q2063.33 373.38 2063.33 377.778 L2063.33 391.436 L2059.04 391.436 L2059.04 365.51 L2063.33 365.51 L2063.33 369.538 Q2064.67 367.177 2066.82 366.042 Q2068.97 364.885 2072.05 364.885 Q2072.49 364.885 2073.02 364.954 Q2073.56 365.001 2074.21 365.116 L2074.23 369.491 Z" fill="#000000" fill-rule="nonzero" fill-opacity="1"></path><path clip-path="url(#clip750)" d="M2074.95 385.556 L2079.83 385.556 L2079.83 391.436 L2074.95 391.436 L2074.95 385.556 Z" fill="#000000" fill-rule="nonzero" fill-opacity="1"></path><path clip-path="url(#clip750)" d="M2105.04 369.908 L2134.71 369.908 L2134.71 373.797 L2105.04 373.797 L2105.04 369.908 M2105.04 379.352 L2134.71 379.352 L2134.71 383.288 L2105.04 383.288 L2105.04 379.352 Z" fill="#000000" fill-rule="nonzero" fill-opacity="1"></path><path clip-path="url(#clip750)" d="M2169.88 359.954 Q2166.26 359.954 2164.44 363.519 Q2162.63 367.061 2162.63 374.19 Q2162.63 381.297 2164.44 384.862 Q2166.26 388.403 2169.88 388.403 Q2173.51 388.403 2175.32 384.862 Q2177.14 381.297 2177.14 374.19 Q2177.14 367.061 2175.32 363.519 Q2173.51 359.954 2169.88 359.954 M2169.88 356.251 Q2175.69 356.251 2178.74 360.857 Q2181.82 365.44 2181.82 374.19 Q2181.82 382.917 2178.74 387.524 Q2175.69 392.107 2169.88 392.107 Q2164.07 392.107 2160.99 387.524 Q2157.93 382.917 2157.93 374.19 Q2157.93 365.44 2160.99 360.857 Q2164.07 356.251 2169.88 356.251 Z" fill="#000000" fill-rule="nonzero" fill-opacity="1"></path><path clip-path="url(#clip750)" d="M2190.04 385.556 L2194.92 385.556 L2194.92 391.436 L2190.04 391.436 L2190.04 385.556 Z" fill="#000000" fill-rule="nonzero" fill-opacity="1"></path><path clip-path="url(#clip750)" d="M2205.92 387.501 L2213.56 387.501 L2213.56 361.135 L2205.25 362.802 L2205.25 358.542 L2213.51 356.876 L2218.19 356.876 L2218.19 387.501 L2225.82 387.501 L2225.82 391.436 L2205.92 391.436 L2205.92 387.501 Z" fill="#000000" fill-rule="nonzero" fill-opacity="1"></path></svg>