<svg xmlns="http://www.w3.org/2000/svg" xmlns:xlink="http://www.w3.org/1999/xlink" width="600" height="400" viewBox="0 0 2400 1600">
<defs>
  <clipPath id="clip190">
    <rect x="0" y="0" width="2400" height="1600"></rect>
  </clipPath>
</defs>
<path clip-path="url(#clip190)" d="M0 1600 L2400 1600 L2400 0 L0 0  Z" fill="#ffffff" fill-rule="evenodd" fill-opacity="1"></path>
<defs>
  <clipPath id="clip191">
    <rect x="480" y="0" width="1681" height="1600"></rect>
  </clipPath>
</defs>
<path clip-path="url(#clip190)" d="M175.445 1423.18 L2352.76 1423.18 L2352.76 123.472 L175.445 123.472  Z" fill="#ffffff" fill-rule="evenodd" fill-opacity="1"></path>
<defs>
  <clipPath id="clip192">
    <rect x="175" y="123" width="2178" height="1301"></rect>
  </clipPath>
</defs>
<polyline clip-path="url(#clip192)" style="stroke:#000000; stroke-linecap:round; stroke-linejoin:round; stroke-width:2; stroke-opacity:0.1; fill:none" points="669.502,1423.18 669.502,123.472 "></polyline>
<polyline clip-path="url(#clip192)" style="stroke:#000000; stroke-linecap:round; stroke-linejoin:round; stroke-width:2; stroke-opacity:0.1; fill:none" points="1210.05,1423.18 1210.05,123.472 "></polyline>
<polyline clip-path="url(#clip192)" style="stroke:#000000; stroke-linecap:round; stroke-linejoin:round; stroke-width:2; stroke-opacity:0.1; fill:none" points="1750.59,1423.18 1750.59,123.472 "></polyline>
<polyline clip-path="url(#clip192)" style="stroke:#000000; stroke-linecap:round; stroke-linejoin:round; stroke-width:2; stroke-opacity:0.1; fill:none" points="2291.13,1423.18 2291.13,123.472 "></polyline>
<polyline clip-path="url(#clip192)" style="stroke:#000000; stroke-linecap:round; stroke-linejoin:round; stroke-width:2; stroke-opacity:0.1; fill:none" points="175.445,1311.96 2352.76,1311.96 "></polyline>
<polyline clip-path="url(#clip192)" style="stroke:#000000; stroke-linecap:round; stroke-linejoin:round; stroke-width:2; stroke-opacity:0.1; fill:none" points="175.445,1055.14 2352.76,1055.14 "></polyline>
<polyline clip-path="url(#clip192)" style="stroke:#000000; stroke-linecap:round; stroke-linejoin:round; stroke-width:2; stroke-opacity:0.1; fill:none" points="175.445,798.321 2352.76,798.321 "></polyline>
<polyline clip-path="url(#clip192)" style="stroke:#000000; stroke-linecap:round; stroke-linejoin:round; stroke-width:2; stroke-opacity:0.1; fill:none" points="175.445,541.501 2352.76,541.501 "></polyline>
<polyline clip-path="url(#clip192)" style="stroke:#000000; stroke-linecap:round; stroke-linejoin:round; stroke-width:2; stroke-opacity:0.1; fill:none" points="175.445,284.681 2352.76,284.681 "></polyline>
<polyline clip-path="url(#clip190)" style="stroke:#000000; stroke-linecap:round; stroke-linejoin:round; stroke-width:4; stroke-opacity:1; fill:none" points="175.445,1423.18 2352.76,1423.18 "></polyline>
<polyline clip-path="url(#clip190)" style="stroke:#000000; stroke-linecap:round; stroke-linejoin:round; stroke-width:4; stroke-opacity:1; fill:none" points="669.502,1423.18 669.502,1404.28 "></polyline>
<polyline clip-path="url(#clip190)" style="stroke:#000000; stroke-linecap:round; stroke-linejoin:round; stroke-width:4; stroke-opacity:1; fill:none" points="1210.05,1423.18 1210.05,1404.28 "></polyline>
<polyline clip-path="url(#clip190)" style="stroke:#000000; stroke-linecap:round; stroke-linejoin:round; stroke-width:4; stroke-opacity:1; fill:none" points="1750.59,1423.18 1750.59,1404.28 "></polyline>
<polyline clip-path="url(#clip190)" style="stroke:#000000; stroke-linecap:round; stroke-linejoin:round; stroke-width:4; stroke-opacity:1; fill:none" points="2291.13,1423.18 2291.13,1404.28 "></polyline>
<path clip-path="url(#clip190)" d="M659.78 1451.02 L678.137 1451.02 L678.137 1454.96 L664.063 1454.96 L664.063 1463.43 Q665.081 1463.08 666.1 1462.92 Q667.118 1462.73 668.137 1462.73 Q673.924 1462.73 677.303 1465.9 Q680.683 1469.08 680.683 1474.49 Q680.683 1480.07 677.211 1483.17 Q673.738 1486.25 667.419 1486.25 Q665.243 1486.25 662.975 1485.88 Q660.729 1485.51 658.322 1484.77 L658.322 1480.07 Q660.405 1481.2 662.627 1481.76 Q664.85 1482.32 667.326 1482.32 Q671.331 1482.32 673.669 1480.21 Q676.007 1478.1 676.007 1474.49 Q676.007 1470.88 673.669 1468.77 Q671.331 1466.67 667.326 1466.67 Q665.451 1466.67 663.576 1467.08 Q661.725 1467.5 659.78 1468.38 L659.78 1451.02 Z" fill="#000000" fill-rule="nonzero" fill-opacity="1"></path><path clip-path="url(#clip190)" d="M1184.73 1481.64 L1192.37 1481.64 L1192.37 1455.28 L1184.06 1456.95 L1184.06 1452.69 L1192.33 1451.02 L1197 1451.02 L1197 1481.64 L1204.64 1481.64 L1204.64 1485.58 L1184.73 1485.58 L1184.73 1481.64 Z" fill="#000000" fill-rule="nonzero" fill-opacity="1"></path><path clip-path="url(#clip190)" d="M1224.09 1454.1 Q1220.47 1454.1 1218.65 1457.66 Q1216.84 1461.2 1216.84 1468.33 Q1216.84 1475.44 1218.65 1479.01 Q1220.47 1482.55 1224.09 1482.55 Q1227.72 1482.55 1229.53 1479.01 Q1231.35 1475.44 1231.35 1468.33 Q1231.35 1461.2 1229.53 1457.66 Q1227.72 1454.1 1224.09 1454.1 M1224.09 1450.39 Q1229.9 1450.39 1232.95 1455 Q1236.03 1459.58 1236.03 1468.33 Q1236.03 1477.06 1232.95 1481.67 Q1229.9 1486.25 1224.09 1486.25 Q1218.28 1486.25 1215.2 1481.67 Q1212.14 1477.06 1212.14 1468.33 Q1212.14 1459.58 1215.2 1455 Q1218.28 1450.39 1224.09 1450.39 Z" fill="#000000" fill-rule="nonzero" fill-opacity="1"></path><path clip-path="url(#clip190)" d="M1725.78 1481.64 L1733.41 1481.64 L1733.41 1455.28 L1725.1 1456.95 L1725.1 1452.69 L1733.37 1451.02 L1738.04 1451.02 L1738.04 1481.64 L1745.68 1481.64 L1745.68 1485.58 L1725.78 1485.58 L1725.78 1481.64 Z" fill="#000000" fill-rule="nonzero" fill-opacity="1"></path><path clip-path="url(#clip190)" d="M1755.17 1451.02 L1773.53 1451.02 L1773.53 1454.96 L1759.46 1454.96 L1759.46 1463.43 Q1760.47 1463.08 1761.49 1462.92 Q1762.51 1462.73 1763.53 1462.73 Q1769.32 1462.73 1772.7 1465.9 Q1776.08 1469.08 1776.08 1474.49 Q1776.08 1480.07 1772.6 1483.17 Q1769.13 1486.25 1762.81 1486.25 Q1760.64 1486.25 1758.37 1485.88 Q1756.12 1485.51 1753.72 1484.77 L1753.72 1480.07 Q1755.8 1481.2 1758.02 1481.76 Q1760.24 1482.32 1762.72 1482.32 Q1766.72 1482.32 1769.06 1480.21 Q1771.4 1478.1 1771.4 1474.49 Q1771.4 1470.88 1769.06 1468.77 Q1766.72 1466.67 1762.72 1466.67 Q1760.84 1466.67 1758.97 1467.08 Q1757.12 1467.5 1755.17 1468.38 L1755.17 1451.02 Z" fill="#000000" fill-rule="nonzero" fill-opacity="1"></path><path clip-path="url(#clip190)" d="M2269.91 1481.64 L2286.23 1481.64 L2286.23 1485.58 L2264.28 1485.58 L2264.28 1481.64 Q2266.94 1478.89 2271.53 1474.26 Q2276.13 1469.61 2277.31 1468.27 Q2279.56 1465.74 2280.44 1464.01 Q2281.34 1462.25 2281.34 1460.56 Q2281.34 1457.8 2279.4 1456.07 Q2277.48 1454.33 2274.37 1454.33 Q2272.18 1454.33 2269.72 1455.09 Q2267.29 1455.86 2264.51 1457.41 L2264.51 1452.69 Q2267.34 1451.55 2269.79 1450.97 Q2272.25 1450.39 2274.28 1450.39 Q2279.65 1450.39 2282.85 1453.08 Q2286.04 1455.77 2286.04 1460.26 Q2286.04 1462.39 2285.23 1464.31 Q2284.44 1466.2 2282.34 1468.8 Q2281.76 1469.47 2278.66 1472.69 Q2275.56 1475.88 2269.91 1481.64 Z" fill="#000000" fill-rule="nonzero" fill-opacity="1"></path><path clip-path="url(#clip190)" d="M2306.04 1454.1 Q2302.43 1454.1 2300.6 1457.66 Q2298.8 1461.2 2298.8 1468.33 Q2298.8 1475.44 2300.6 1479.01 Q2302.43 1482.55 2306.04 1482.55 Q2309.68 1482.55 2311.48 1479.01 Q2313.31 1475.44 2313.31 1468.33 Q2313.31 1461.2 2311.48 1457.66 Q2309.68 1454.1 2306.04 1454.1 M2306.04 1450.39 Q2311.85 1450.39 2314.91 1455 Q2317.99 1459.58 2317.99 1468.33 Q2317.99 1477.06 2314.91 1481.67 Q2311.85 1486.25 2306.04 1486.25 Q2300.23 1486.25 2297.15 1481.67 Q2294.1 1477.06 2294.1 1468.33 Q2294.1 1459.58 2297.15 1455 Q2300.23 1450.39 2306.04 1450.39 Z" fill="#000000" fill-rule="nonzero" fill-opacity="1"></path><path clip-path="url(#clip190)" d="M1152.11 1520.52 L1182.16 1520.52 L1182.16 1525.93 L1158.54 1525.93 L1158.54 1540 L1181.17 1540 L1181.17 1545.41 L1158.54 1545.41 L1158.54 1562.63 L1182.73 1562.63 L1182.73 1568.04 L1152.11 1568.04 L1152.11 1520.52 Z" fill="#000000" fill-rule="nonzero" fill-opacity="1"></path><path clip-path="url(#clip190)" d="M1198.71 1562.7 L1198.71 1581.6 L1192.82 1581.6 L1192.82 1532.4 L1198.71 1532.4 L1198.71 1537.81 Q1200.55 1534.62 1203.36 1533.1 Q1206.19 1531.54 1210.1 1531.54 Q1216.6 1531.54 1220.64 1536.69 Q1224.71 1541.85 1224.71 1550.25 Q1224.71 1558.65 1220.64 1563.81 Q1216.6 1568.97 1210.1 1568.97 Q1206.19 1568.97 1203.36 1567.44 Q1200.55 1565.88 1198.71 1562.7 M1218.63 1550.25 Q1218.63 1543.79 1215.96 1540.13 Q1213.32 1536.44 1208.67 1536.44 Q1204.02 1536.44 1201.35 1540.13 Q1198.71 1543.79 1198.71 1550.25 Q1198.71 1556.71 1201.35 1560.4 Q1204.02 1564.07 1208.67 1564.07 Q1213.32 1564.07 1215.96 1560.4 Q1218.63 1556.71 1218.63 1550.25 Z" fill="#000000" fill-rule="nonzero" fill-opacity="1"></path><path clip-path="url(#clip190)" d="M1248.23 1536.5 Q1243.52 1536.5 1240.79 1540.19 Q1238.05 1543.85 1238.05 1550.25 Q1238.05 1556.65 1240.75 1560.34 Q1243.49 1564 1248.23 1564 Q1252.91 1564 1255.65 1560.31 Q1258.39 1556.62 1258.39 1550.25 Q1258.39 1543.92 1255.65 1540.23 Q1252.91 1536.5 1248.23 1536.5 M1248.23 1531.54 Q1255.87 1531.54 1260.23 1536.5 Q1264.59 1541.47 1264.59 1550.25 Q1264.59 1559 1260.23 1564 Q1255.87 1568.97 1248.23 1568.97 Q1240.56 1568.97 1236.2 1564 Q1231.87 1559 1231.87 1550.25 Q1231.87 1541.47 1236.2 1536.5 Q1240.56 1531.54 1248.23 1531.54 Z" fill="#000000" fill-rule="nonzero" fill-opacity="1"></path><path clip-path="url(#clip190)" d="M1299.96 1533.76 L1299.96 1539.24 Q1297.47 1537.87 1294.96 1537.2 Q1292.48 1536.5 1289.93 1536.5 Q1284.23 1536.5 1281.08 1540.13 Q1277.93 1543.73 1277.93 1550.25 Q1277.93 1556.78 1281.08 1560.4 Q1284.23 1564 1289.93 1564 Q1292.48 1564 1294.96 1563.33 Q1297.47 1562.63 1299.96 1561.26 L1299.96 1566.68 Q1297.5 1567.82 1294.86 1568.39 Q1292.25 1568.97 1289.29 1568.97 Q1281.24 1568.97 1276.5 1563.91 Q1271.76 1558.85 1271.76 1550.25 Q1271.76 1541.53 1276.53 1536.53 Q1281.34 1531.54 1289.67 1531.54 Q1292.38 1531.54 1294.96 1532.11 Q1297.54 1532.65 1299.96 1533.76 Z" fill="#000000" fill-rule="nonzero" fill-opacity="1"></path><path clip-path="url(#clip190)" d="M1339.77 1546.53 L1339.77 1568.04 L1333.92 1568.04 L1333.92 1546.72 Q1333.92 1541.66 1331.94 1539.14 Q1329.97 1536.63 1326.02 1536.63 Q1321.28 1536.63 1318.54 1539.65 Q1315.81 1542.68 1315.81 1547.9 L1315.81 1568.04 L1309.92 1568.04 L1309.92 1518.52 L1315.81 1518.52 L1315.81 1537.93 Q1317.91 1534.72 1320.74 1533.13 Q1323.6 1531.54 1327.33 1531.54 Q1333.47 1531.54 1336.62 1535.36 Q1339.77 1539.14 1339.77 1546.53 Z" fill="#000000" fill-rule="nonzero" fill-opacity="1"></path><path clip-path="url(#clip190)" d="M1374.18 1533.45 L1374.18 1538.98 Q1371.7 1537.71 1369.02 1537.07 Q1366.35 1536.44 1363.49 1536.44 Q1359.12 1536.44 1356.93 1537.77 Q1354.76 1539.11 1354.76 1541.79 Q1354.76 1543.82 1356.32 1545 Q1357.88 1546.15 1362.59 1547.2 L1364.6 1547.64 Q1370.84 1548.98 1373.45 1551.43 Q1376.09 1553.85 1376.09 1558.21 Q1376.09 1563.17 1372.14 1566.07 Q1368.23 1568.97 1361.35 1568.97 Q1358.49 1568.97 1355.37 1568.39 Q1352.28 1567.85 1348.84 1566.74 L1348.84 1560.69 Q1352.09 1562.38 1355.24 1563.24 Q1358.39 1564.07 1361.48 1564.07 Q1365.62 1564.07 1367.85 1562.66 Q1370.07 1561.23 1370.07 1558.65 Q1370.07 1556.27 1368.45 1554.99 Q1366.86 1553.72 1361.42 1552.54 L1359.38 1552.07 Q1353.94 1550.92 1351.52 1548.56 Q1349.1 1546.18 1349.1 1542.04 Q1349.1 1537.01 1352.66 1534.27 Q1356.23 1531.54 1362.78 1531.54 Q1366.03 1531.54 1368.9 1532.01 Q1371.76 1532.49 1374.18 1533.45 Z" fill="#000000" fill-rule="nonzero" fill-opacity="1"></path><polyline clip-path="url(#clip190)" style="stroke:#000000; stroke-linecap:round; stroke-linejoin:round; stroke-width:4; stroke-opacity:1; fill:none" points="175.445,1423.18 175.445,123.472 "></polyline>
<polyline clip-path="url(#clip190)" style="stroke:#000000; stroke-linecap:round; stroke-linejoin:round; stroke-width:4; stroke-opacity:1; fill:none" points="175.445,1311.96 194.343,1311.96 "></polyline>
<polyline clip-path="url(#clip190)" style="stroke:#000000; stroke-linecap:round; stroke-linejoin:round; stroke-width:4; stroke-opacity:1; fill:none" points="175.445,1055.14 194.343,1055.14 "></polyline>
<polyline clip-path="url(#clip190)" style="stroke:#000000; stroke-linecap:round; stroke-linejoin:round; stroke-width:4; stroke-opacity:1; fill:none" points="175.445,798.321 194.343,798.321 "></polyline>
<polyline clip-path="url(#clip190)" style="stroke:#000000; stroke-linecap:round; stroke-linejoin:round; stroke-width:4; stroke-opacity:1; fill:none" points="175.445,541.501 194.343,541.501 "></polyline>
<polyline clip-path="url(#clip190)" style="stroke:#000000; stroke-linecap:round; stroke-linejoin:round; stroke-width:4; stroke-opacity:1; fill:none" points="175.445,284.681 194.343,284.681 "></polyline>
<path clip-path="url(#clip190)" d="M123.126 1325.31 L139.445 1325.31 L139.445 1329.24 L117.501 1329.24 L117.501 1325.31 Q120.163 1322.55 124.746 1317.92 Q129.353 1313.27 130.533 1311.93 Q132.779 1309.4 133.658 1307.67 Q134.561 1305.91 134.561 1304.22 Q134.561 1301.46 132.617 1299.73 Q130.695 1297.99 127.593 1297.99 Q125.394 1297.99 122.941 1298.76 Q120.51 1299.52 117.732 1301.07 L117.732 1296.35 Q120.556 1295.21 123.01 1294.64 Q125.464 1294.06 127.501 1294.06 Q132.871 1294.06 136.066 1296.74 Q139.26 1299.43 139.26 1303.92 Q139.26 1306.05 138.45 1307.97 Q137.663 1309.87 135.556 1312.46 Q134.978 1313.13 131.876 1316.35 Q128.774 1319.54 123.126 1325.31 Z" fill="#000000" fill-rule="nonzero" fill-opacity="1"></path><path clip-path="url(#clip190)" d="M132.316 1053.79 Q135.672 1054.5 137.547 1056.77 Q139.445 1059.04 139.445 1062.38 Q139.445 1067.49 135.927 1070.29 Q132.408 1073.09 125.927 1073.09 Q123.751 1073.09 121.436 1072.65 Q119.144 1072.24 116.691 1071.38 L116.691 1066.87 Q118.635 1068 120.95 1068.58 Q123.265 1069.16 125.788 1069.16 Q130.186 1069.16 132.478 1067.42 Q134.792 1065.69 134.792 1062.38 Q134.792 1059.32 132.64 1057.61 Q130.51 1055.87 126.691 1055.87 L122.663 1055.87 L122.663 1052.03 L126.876 1052.03 Q130.325 1052.03 132.154 1050.66 Q133.982 1049.27 133.982 1046.68 Q133.982 1044.02 132.084 1042.61 Q130.209 1041.17 126.691 1041.17 Q124.769 1041.17 122.57 1041.59 Q120.371 1042 117.732 1042.88 L117.732 1038.72 Q120.394 1037.98 122.709 1037.61 Q125.047 1037.24 127.107 1037.24 Q132.431 1037.24 135.533 1039.67 Q138.635 1042.07 138.635 1046.19 Q138.635 1049.07 136.992 1051.06 Q135.348 1053.02 132.316 1053.79 Z" fill="#000000" fill-rule="nonzero" fill-opacity="1"></path><path clip-path="url(#clip190)" d="M129.862 785.115 L118.056 803.564 L129.862 803.564 L129.862 785.115 M128.635 781.041 L134.515 781.041 L134.515 803.564 L139.445 803.564 L139.445 807.453 L134.515 807.453 L134.515 815.601 L129.862 815.601 L129.862 807.453 L114.26 807.453 L114.26 802.939 L128.635 781.041 Z" fill="#000000" fill-rule="nonzero" fill-opacity="1"></path><path clip-path="url(#clip190)" d="M118.543 524.221 L136.899 524.221 L136.899 528.156 L122.825 528.156 L122.825 536.628 Q123.843 536.281 124.862 536.119 Q125.88 535.934 126.899 535.934 Q132.686 535.934 136.066 539.105 Q139.445 542.276 139.445 547.693 Q139.445 553.272 135.973 556.374 Q132.501 559.452 126.181 559.452 Q124.005 559.452 121.737 559.082 Q119.492 558.711 117.084 557.971 L117.084 553.272 Q119.168 554.406 121.39 554.961 Q123.612 555.517 126.089 555.517 Q130.093 555.517 132.431 553.411 Q134.769 551.304 134.769 547.693 Q134.769 544.082 132.431 541.975 Q130.093 539.869 126.089 539.869 Q124.214 539.869 122.339 540.286 Q120.487 540.702 118.543 541.582 L118.543 524.221 Z" fill="#000000" fill-rule="nonzero" fill-opacity="1"></path><path clip-path="url(#clip190)" d="M127.917 282.817 Q124.769 282.817 122.918 284.97 Q121.089 287.123 121.089 290.873 Q121.089 294.6 122.918 296.776 Q124.769 298.928 127.917 298.928 Q131.066 298.928 132.894 296.776 Q134.746 294.6 134.746 290.873 Q134.746 287.123 132.894 284.97 Q131.066 282.817 127.917 282.817 M137.2 268.165 L137.2 272.424 Q135.441 271.59 133.635 271.151 Q131.853 270.711 130.093 270.711 Q125.464 270.711 123.01 273.836 Q120.58 276.961 120.232 283.28 Q121.598 281.266 123.658 280.202 Q125.718 279.114 128.195 279.114 Q133.404 279.114 136.413 282.285 Q139.445 285.433 139.445 290.873 Q139.445 296.197 136.297 299.414 Q133.149 302.632 127.917 302.632 Q121.922 302.632 118.751 298.049 Q115.58 293.442 115.58 284.715 Q115.58 276.521 119.468 271.66 Q123.357 266.776 129.908 266.776 Q131.667 266.776 133.45 267.123 Q135.255 267.47 137.2 268.165 Z" fill="#000000" fill-rule="nonzero" fill-opacity="1"></path><path clip-path="url(#clip190)" d="M16.4842 840.023 L16.4842 833.593 L58.5933 833.593 L58.5933 810.454 L64.0042 810.454 L64.0042 840.023 L16.4842 840.023 Z" fill="#000000" fill-rule="nonzero" fill-opacity="1"></path><path clip-path="url(#clip190)" d="M32.4621 791.293 Q32.4621 796.004 36.1542 798.741 Q39.8145 801.478 46.212 801.478 Q52.6095 801.478 56.3017 798.773 Q59.9619 796.036 59.9619 791.293 Q59.9619 786.614 56.2698 783.877 Q52.5777 781.14 46.212 781.14 Q39.8781 781.14 36.186 783.877 Q32.4621 786.614 32.4621 791.293 M27.4968 791.293 Q27.4968 783.654 32.4621 779.294 Q37.4273 774.933 46.212 774.933 Q54.9649 774.933 59.9619 779.294 Q64.9272 783.654 64.9272 791.293 Q64.9272 798.964 59.9619 803.324 Q54.9649 807.653 46.212 807.653 Q37.4273 807.653 32.4621 803.324 Q27.4968 798.964 27.4968 791.293 Z" fill="#000000" fill-rule="nonzero" fill-opacity="1"></path><path clip-path="url(#clip190)" d="M29.4065 742.5 L34.9447 742.5 Q33.6716 744.983 33.035 747.656 Q32.3984 750.33 32.3984 753.194 Q32.3984 757.555 33.7352 759.751 Q35.072 761.915 37.7456 761.915 Q39.7826 761.915 40.9603 760.356 Q42.1061 758.796 43.1565 754.086 L43.6021 752.08 Q44.9389 745.842 47.3897 743.232 Q49.8086 740.59 54.1691 740.59 Q59.1344 740.59 62.0308 744.537 Q64.9272 748.452 64.9272 755.327 Q64.9272 758.192 64.3543 761.311 Q63.8132 764.398 62.6992 767.836 L56.6518 767.836 Q58.3387 764.589 59.198 761.438 Q60.0256 758.287 60.0256 755.2 Q60.0256 751.062 58.6251 748.834 Q57.1929 746.606 54.6147 746.606 Q52.2276 746.606 50.9545 748.229 Q49.6813 749.821 48.5037 755.263 L48.0262 757.3 Q46.8804 762.743 44.5251 765.162 Q42.138 767.581 38.0002 767.581 Q32.9713 767.581 30.2341 764.016 Q27.4968 760.451 27.4968 753.895 Q27.4968 750.648 27.9743 747.784 Q28.4517 744.919 29.4065 742.5 Z" fill="#000000" fill-rule="nonzero" fill-opacity="1"></path><path clip-path="url(#clip190)" d="M29.4065 708.539 L34.9447 708.539 Q33.6716 711.022 33.035 713.695 Q32.3984 716.369 32.3984 719.233 Q32.3984 723.594 33.7352 725.79 Q35.072 727.954 37.7456 727.954 Q39.7826 727.954 40.9603 726.395 Q42.1061 724.835 43.1565 720.125 L43.6021 718.119 Q44.9389 711.881 47.3897 709.271 Q49.8086 706.629 54.1691 706.629 Q59.1344 706.629 62.0308 710.576 Q64.9272 714.491 64.9272 721.366 Q64.9272 724.23 64.3543 727.35 Q63.8132 730.437 62.6992 733.875 L56.6518 733.875 Q58.3387 730.628 59.198 727.477 Q60.0256 724.326 60.0256 721.239 Q60.0256 717.101 58.6251 714.873 Q57.1929 712.645 54.6147 712.645 Q52.2276 712.645 50.9545 714.268 Q49.6813 715.86 48.5037 721.302 L48.0262 723.339 Q46.8804 728.782 44.5251 731.201 Q42.138 733.62 38.0002 733.62 Q32.9713 733.62 30.2341 730.055 Q27.4968 726.49 27.4968 719.934 Q27.4968 716.687 27.9743 713.823 Q28.4517 710.958 29.4065 708.539 Z" fill="#000000" fill-rule="nonzero" fill-opacity="1"></path><path clip-path="url(#clip190)" d="M701.714 12.096 L752.876 12.096 L752.876 18.9825 L731.407 18.9825 L731.407 72.576 L723.183 72.576 L723.183 18.9825 L701.714 18.9825 L701.714 12.096 Z" fill="#000000" fill-rule="nonzero" fill-opacity="1"></path><path clip-path="url(#clip190)" d="M798.166 45.1919 L798.166 72.576 L790.712 72.576 L790.712 45.4349 Q790.712 38.994 788.2 35.7938 Q785.689 32.5936 780.666 32.5936 Q774.63 32.5936 771.146 36.4419 Q767.662 40.2903 767.662 46.9338 L767.662 72.576 L760.168 72.576 L760.168 9.54393 L767.662 9.54393 L767.662 34.2544 Q770.336 30.163 773.941 28.1376 Q777.587 26.1121 782.327 26.1121 Q790.145 26.1121 794.155 30.9732 Q798.166 35.7938 798.166 45.1919 Z" fill="#000000" fill-rule="nonzero" fill-opacity="1"></path><path clip-path="url(#clip190)" d="M851.84 48.0275 L851.84 51.6733 L817.569 51.6733 Q818.055 59.3701 822.187 63.421 Q826.36 67.4314 833.773 67.4314 Q838.067 67.4314 842.077 66.3781 Q846.128 65.3249 850.098 63.2184 L850.098 70.267 Q846.088 71.9684 841.875 72.8596 Q837.662 73.7508 833.327 73.7508 Q822.471 73.7508 816.111 67.4314 Q809.792 61.1119 809.792 50.3365 Q809.792 39.1965 815.787 32.6746 Q821.823 26.1121 832.031 26.1121 Q841.186 26.1121 846.493 32.0264 Q851.84 37.9003 851.84 48.0275 M844.386 45.84 Q844.305 39.7232 840.943 36.0774 Q837.621 32.4315 832.112 32.4315 Q825.874 32.4315 822.106 35.9558 Q818.38 39.4801 817.812 45.8805 L844.386 45.84 Z" fill="#000000" fill-rule="nonzero" fill-opacity="1"></path><path clip-path="url(#clip190)" d="M929.253 48.0275 L929.253 51.6733 L894.982 51.6733 Q895.468 59.3701 899.6 63.421 Q903.773 67.4314 911.186 67.4314 Q915.48 67.4314 919.49 66.3781 Q923.541 65.3249 927.511 63.2184 L927.511 70.267 Q923.501 71.9684 919.288 72.8596 Q915.075 73.7508 910.74 73.7508 Q899.884 73.7508 893.524 67.4314 Q887.204 61.1119 887.204 50.3365 Q887.204 39.1965 893.2 32.6746 Q899.236 26.1121 909.444 26.1121 Q918.599 26.1121 923.906 32.0264 Q929.253 37.9003 929.253 48.0275 M921.799 45.84 Q921.718 39.7232 918.356 36.0774 Q915.034 32.4315 909.525 32.4315 Q903.287 32.4315 899.519 35.9558 Q895.792 39.4801 895.225 45.8805 L921.799 45.84 Z" fill="#000000" fill-rule="nonzero" fill-opacity="1"></path><path clip-path="url(#clip190)" d="M964.455 9.54393 L964.455 15.7418 L957.326 15.7418 Q953.315 15.7418 951.735 17.3622 Q950.196 18.9825 950.196 23.1955 L950.196 27.2059 L962.47 27.2059 L962.47 32.9987 L950.196 32.9987 L950.196 72.576 L942.702 72.576 L942.702 32.9987 L935.572 32.9987 L935.572 27.2059 L942.702 27.2059 L942.702 24.0462 Q942.702 16.471 946.226 13.0277 Q949.75 9.54393 957.407 9.54393 L964.455 9.54393 Z" fill="#000000" fill-rule="nonzero" fill-opacity="1"></path><path clip-path="url(#clip190)" d="M993.662 9.54393 L993.662 15.7418 L986.533 15.7418 Q982.522 15.7418 980.942 17.3622 Q979.403 18.9825 979.403 23.1955 L979.403 27.2059 L991.677 27.2059 L991.677 32.9987 L979.403 32.9987 L979.403 72.576 L971.909 72.576 L971.909 32.9987 L964.779 32.9987 L964.779 27.2059 L971.909 27.2059 L971.909 24.0462 Q971.909 16.471 975.433 13.0277 Q978.957 9.54393 986.614 9.54393 L993.662 9.54393 Z" fill="#000000" fill-rule="nonzero" fill-opacity="1"></path><path clip-path="url(#clip190)" d="M1038.71 48.0275 L1038.71 51.6733 L1004.44 51.6733 Q1004.92 59.3701 1009.06 63.421 Q1013.23 67.4314 1020.64 67.4314 Q1024.94 67.4314 1028.95 66.3781 Q1033 65.3249 1036.97 63.2184 L1036.97 70.267 Q1032.96 71.9684 1028.74 72.8596 Q1024.53 73.7508 1020.2 73.7508 Q1009.34 73.7508 1002.98 67.4314 Q996.66 61.1119 996.66 50.3365 Q996.66 39.1965 1002.66 32.6746 Q1008.69 26.1121 1018.9 26.1121 Q1028.05 26.1121 1033.36 32.0264 Q1038.71 37.9003 1038.71 48.0275 M1031.25 45.84 Q1031.17 39.7232 1027.81 36.0774 Q1024.49 32.4315 1018.98 32.4315 Q1012.74 32.4315 1008.97 35.9558 Q1005.25 39.4801 1004.68 45.8805 L1031.25 45.84 Z" fill="#000000" fill-rule="nonzero" fill-opacity="1"></path><path clip-path="url(#clip190)" d="M1083.59 28.9478 L1083.59 35.9153 Q1080.43 34.1734 1077.23 33.3227 Q1074.07 32.4315 1070.83 32.4315 Q1063.58 32.4315 1059.57 37.0496 Q1055.56 41.6271 1055.56 49.9314 Q1055.56 58.2358 1059.57 62.8538 Q1063.58 67.4314 1070.83 67.4314 Q1074.07 67.4314 1077.23 66.5807 Q1080.43 65.6895 1083.59 63.9476 L1083.59 70.8341 Q1080.47 72.2924 1077.11 73.0216 Q1073.79 73.7508 1070.02 73.7508 Q1059.77 73.7508 1053.74 67.3098 Q1047.7 60.8689 1047.7 49.9314 Q1047.7 38.832 1053.78 32.472 Q1059.89 26.1121 1070.51 26.1121 Q1073.95 26.1121 1077.23 26.8413 Q1080.51 27.5299 1083.59 28.9478 Z" fill="#000000" fill-rule="nonzero" fill-opacity="1"></path><path clip-path="url(#clip190)" d="M1103.93 14.324 L1103.93 27.2059 L1119.28 27.2059 L1119.28 32.9987 L1103.93 32.9987 L1103.93 57.6282 Q1103.93 63.1779 1105.43 64.7578 Q1106.97 66.3376 1111.62 66.3376 L1119.28 66.3376 L1119.28 72.576 L1111.62 72.576 Q1103 72.576 1099.71 69.3758 Q1096.43 66.1351 1096.43 57.6282 L1096.43 32.9987 L1090.96 32.9987 L1090.96 27.2059 L1096.43 27.2059 L1096.43 14.324 L1103.93 14.324 Z" fill="#000000" fill-rule="nonzero" fill-opacity="1"></path><path clip-path="url(#clip190)" d="M1173.04 32.4315 Q1167.04 32.4315 1163.56 37.1306 Q1160.07 41.7891 1160.07 49.9314 Q1160.07 58.0738 1163.52 62.7728 Q1167 67.4314 1173.04 67.4314 Q1178.99 67.4314 1182.47 62.7323 Q1185.96 58.0333 1185.96 49.9314 Q1185.96 41.8701 1182.47 37.1711 Q1178.99 32.4315 1173.04 32.4315 M1173.04 26.1121 Q1182.76 26.1121 1188.31 32.4315 Q1193.86 38.7509 1193.86 49.9314 Q1193.86 61.0714 1188.31 67.4314 Q1182.76 73.7508 1173.04 73.7508 Q1163.27 73.7508 1157.72 67.4314 Q1152.21 61.0714 1152.21 49.9314 Q1152.21 38.7509 1157.72 32.4315 Q1163.27 26.1121 1173.04 26.1121 Z" fill="#000000" fill-rule="nonzero" fill-opacity="1"></path><path clip-path="url(#clip190)" d="M1229.18 9.54393 L1229.18 15.7418 L1222.05 15.7418 Q1218.04 15.7418 1216.46 17.3622 Q1214.92 18.9825 1214.92 23.1955 L1214.92 27.2059 L1227.2 27.2059 L1227.2 32.9987 L1214.92 32.9987 L1214.92 72.576 L1207.43 72.576 L1207.43 32.9987 L1200.3 32.9987 L1200.3 27.2059 L1207.43 27.2059 L1207.43 24.0462 Q1207.43 16.471 1210.95 13.0277 Q1214.48 9.54393 1222.13 9.54393 L1229.18 9.54393 Z" fill="#000000" fill-rule="nonzero" fill-opacity="1"></path><path clip-path="url(#clip190)" d="M1261.79 9.54393 L1269.25 9.54393 L1269.25 72.576 L1261.79 72.576 L1261.79 9.54393 Z" fill="#000000" fill-rule="nonzero" fill-opacity="1"></path><path clip-path="url(#clip190)" d="M1323.65 48.0275 L1323.65 51.6733 L1289.38 51.6733 Q1289.86 59.3701 1294 63.421 Q1298.17 67.4314 1305.58 67.4314 Q1309.88 67.4314 1313.89 66.3781 Q1317.94 65.3249 1321.91 63.2184 L1321.91 70.267 Q1317.9 71.9684 1313.68 72.8596 Q1309.47 73.7508 1305.14 73.7508 Q1294.28 73.7508 1287.92 67.4314 Q1281.6 61.1119 1281.6 50.3365 Q1281.6 39.1965 1287.6 32.6746 Q1293.63 26.1121 1303.84 26.1121 Q1312.99 26.1121 1318.3 32.0264 Q1323.65 37.9003 1323.65 48.0275 M1316.2 45.84 Q1316.11 39.7232 1312.75 36.0774 Q1309.43 32.4315 1303.92 32.4315 Q1297.68 32.4315 1293.92 35.9558 Q1290.19 39.4801 1289.62 45.8805 L1316.2 45.84 Z" fill="#000000" fill-rule="nonzero" fill-opacity="1"></path><path clip-path="url(#clip190)" d="M1356.5 49.7694 Q1347.47 49.7694 1343.98 51.8354 Q1340.5 53.9013 1340.5 58.8839 Q1340.5 62.8538 1343.09 65.2034 Q1345.73 67.5124 1350.22 67.5124 Q1356.42 67.5124 1360.15 63.1374 Q1363.91 58.7219 1363.91 51.4303 L1363.91 49.7694 L1356.5 49.7694 M1371.37 46.6907 L1371.37 72.576 L1363.91 72.576 L1363.91 65.6895 Q1361.36 69.8214 1357.55 71.8063 Q1353.75 73.7508 1348.24 73.7508 Q1341.27 73.7508 1337.14 69.8619 Q1333.05 65.9325 1333.05 59.3701 Q1333.05 51.7138 1338.15 47.825 Q1343.3 43.9361 1353.46 43.9361 L1363.91 43.9361 L1363.91 43.2069 Q1363.91 38.0623 1360.51 35.2672 Q1357.15 32.4315 1351.03 32.4315 Q1347.14 32.4315 1343.46 33.3632 Q1339.77 34.295 1336.37 36.1584 L1336.37 29.2718 Q1340.46 27.692 1344.31 26.9223 Q1348.16 26.1121 1351.8 26.1121 Q1361.65 26.1121 1366.51 31.2163 Q1371.37 36.3204 1371.37 46.6907 Z" fill="#000000" fill-rule="nonzero" fill-opacity="1"></path><path clip-path="url(#clip190)" d="M1413.01 34.1734 Q1411.76 33.4443 1410.26 33.1202 Q1408.8 32.7556 1407.02 32.7556 Q1400.7 32.7556 1397.29 36.8875 Q1393.93 40.9789 1393.93 48.6757 L1393.93 72.576 L1386.44 72.576 L1386.44 27.2059 L1393.93 27.2059 L1393.93 34.2544 Q1396.28 30.1225 1400.05 28.1376 Q1403.82 26.1121 1409.2 26.1121 Q1409.97 26.1121 1410.91 26.2337 Q1411.84 26.3147 1412.97 26.5172 L1413.01 34.1734 Z" fill="#000000" fill-rule="nonzero" fill-opacity="1"></path><path clip-path="url(#clip190)" d="M1457.09 45.1919 L1457.09 72.576 L1449.63 72.576 L1449.63 45.4349 Q1449.63 38.994 1447.12 35.7938 Q1444.61 32.5936 1439.59 32.5936 Q1433.55 32.5936 1430.07 36.4419 Q1426.58 40.2903 1426.58 46.9338 L1426.58 72.576 L1419.09 72.576 L1419.09 27.2059 L1426.58 27.2059 L1426.58 34.2544 Q1429.26 30.163 1432.86 28.1376 Q1436.51 26.1121 1441.25 26.1121 Q1449.06 26.1121 1453.08 30.9732 Q1457.09 35.7938 1457.09 45.1919 Z" fill="#000000" fill-rule="nonzero" fill-opacity="1"></path><path clip-path="url(#clip190)" d="M1471.95 27.2059 L1479.41 27.2059 L1479.41 72.576 L1471.95 72.576 L1471.95 27.2059 M1471.95 9.54393 L1479.41 9.54393 L1479.41 18.9825 L1471.95 18.9825 L1471.95 9.54393 Z" fill="#000000" fill-rule="nonzero" fill-opacity="1"></path><path clip-path="url(#clip190)" d="M1532.72 45.1919 L1532.72 72.576 L1525.26 72.576 L1525.26 45.4349 Q1525.26 38.994 1522.75 35.7938 Q1520.24 32.5936 1515.22 32.5936 Q1509.18 32.5936 1505.7 36.4419 Q1502.21 40.2903 1502.21 46.9338 L1502.21 72.576 L1494.72 72.576 L1494.72 27.2059 L1502.21 27.2059 L1502.21 34.2544 Q1504.89 30.163 1508.49 28.1376 Q1512.14 26.1121 1516.88 26.1121 Q1524.7 26.1121 1528.71 30.9732 Q1532.72 35.7938 1532.72 45.1919 Z" fill="#000000" fill-rule="nonzero" fill-opacity="1"></path><path clip-path="url(#clip190)" d="M1577.44 49.3643 Q1577.44 41.2625 1574.08 36.8065 Q1570.75 32.3505 1564.72 32.3505 Q1558.72 32.3505 1555.36 36.8065 Q1552.04 41.2625 1552.04 49.3643 Q1552.04 57.4256 1555.36 61.8816 Q1558.72 66.3376 1564.72 66.3376 Q1570.75 66.3376 1574.08 61.8816 Q1577.44 57.4256 1577.44 49.3643 M1584.89 66.9452 Q1584.89 78.5308 1579.75 84.1616 Q1574.6 89.8329 1563.99 89.8329 Q1560.06 89.8329 1556.58 89.2252 Q1553.09 88.6581 1549.81 87.4428 L1549.81 80.1917 Q1553.09 81.9741 1556.29 82.8248 Q1559.49 83.6755 1562.81 83.6755 Q1570.15 83.6755 1573.79 79.8271 Q1577.44 76.0193 1577.44 68.282 L1577.44 64.5957 Q1575.13 68.6061 1571.52 70.5911 Q1567.92 72.576 1562.9 72.576 Q1554.55 72.576 1549.45 66.2161 Q1544.34 59.8562 1544.34 49.3643 Q1544.34 38.832 1549.45 32.472 Q1554.55 26.1121 1562.9 26.1121 Q1567.92 26.1121 1571.52 28.0971 Q1575.13 30.082 1577.44 34.0924 L1577.44 27.2059 L1584.89 27.2059 L1584.89 66.9452 Z" fill="#000000" fill-rule="nonzero" fill-opacity="1"></path><path clip-path="url(#clip190)" d="M1652.91 34.1734 Q1651.65 33.4443 1650.15 33.1202 Q1648.69 32.7556 1646.91 32.7556 Q1640.59 32.7556 1637.19 36.8875 Q1633.83 40.9789 1633.83 48.6757 L1633.83 72.576 L1626.33 72.576 L1626.33 27.2059 L1633.83 27.2059 L1633.83 34.2544 Q1636.18 30.1225 1639.94 28.1376 Q1643.71 26.1121 1649.1 26.1121 Q1649.87 26.1121 1650.8 26.2337 Q1651.73 26.3147 1652.87 26.5172 L1652.91 34.1734 Z" fill="#000000" fill-rule="nonzero" fill-opacity="1"></path><path clip-path="url(#clip190)" d="M1681.34 49.7694 Q1672.31 49.7694 1668.83 51.8354 Q1665.34 53.9013 1665.34 58.8839 Q1665.34 62.8538 1667.94 65.2034 Q1670.57 67.5124 1675.06 67.5124 Q1681.26 67.5124 1684.99 63.1374 Q1688.76 58.7219 1688.76 51.4303 L1688.76 49.7694 L1681.34 49.7694 M1696.21 46.6907 L1696.21 72.576 L1688.76 72.576 L1688.76 65.6895 Q1686.2 69.8214 1682.4 71.8063 Q1678.59 73.7508 1673.08 73.7508 Q1666.11 73.7508 1661.98 69.8619 Q1657.89 65.9325 1657.89 59.3701 Q1657.89 51.7138 1662.99 47.825 Q1668.14 43.9361 1678.31 43.9361 L1688.76 43.9361 L1688.76 43.2069 Q1688.76 38.0623 1685.35 35.2672 Q1681.99 32.4315 1675.87 32.4315 Q1671.99 32.4315 1668.3 33.3632 Q1664.61 34.295 1661.21 36.1584 L1661.21 29.2718 Q1665.3 27.692 1669.15 26.9223 Q1673 26.1121 1676.64 26.1121 Q1686.49 26.1121 1691.35 31.2163 Q1696.21 36.3204 1696.21 46.6907 Z" fill="#000000" fill-rule="nonzero" fill-opacity="1"></path><path clip-path="url(#clip190)" d="M1718.94 14.324 L1718.94 27.2059 L1734.29 27.2059 L1734.29 32.9987 L1718.94 32.9987 L1718.94 57.6282 Q1718.94 63.1779 1720.43 64.7578 Q1721.97 66.3376 1726.63 66.3376 L1734.29 66.3376 L1734.29 72.576 L1726.63 72.576 Q1718 72.576 1714.72 69.3758 Q1711.44 66.1351 1711.44 57.6282 L1711.44 32.9987 L1705.97 32.9987 L1705.97 27.2059 L1711.44 27.2059 L1711.44 14.324 L1718.94 14.324 Z" fill="#000000" fill-rule="nonzero" fill-opacity="1"></path><path clip-path="url(#clip190)" d="M1782.9 48.0275 L1782.9 51.6733 L1748.63 51.6733 Q1749.12 59.3701 1753.25 63.421 Q1757.42 67.4314 1764.83 67.4314 Q1769.13 67.4314 1773.14 66.3781 Q1777.19 65.3249 1781.16 63.2184 L1781.16 70.267 Q1777.15 71.9684 1772.93 72.8596 Q1768.72 73.7508 1764.39 73.7508 Q1753.53 73.7508 1747.17 67.4314 Q1740.85 61.1119 1740.85 50.3365 Q1740.85 39.1965 1746.85 32.6746 Q1752.88 26.1121 1763.09 26.1121 Q1772.25 26.1121 1777.55 32.0264 Q1782.9 37.9003 1782.9 48.0275 M1775.45 45.84 Q1775.37 39.7232 1772 36.0774 Q1768.68 32.4315 1763.17 32.4315 Q1756.93 32.4315 1753.17 35.9558 Q1749.44 39.4801 1748.87 45.8805 L1775.45 45.84 Z" fill="#000000" fill-rule="nonzero" fill-opacity="1"></path><path clip-path="url(#clip190)" d="M1824.06 28.5427 L1824.06 35.5912 Q1820.9 33.9709 1817.49 33.1607 Q1814.09 32.3505 1810.45 32.3505 Q1804.9 32.3505 1802.1 34.0519 Q1799.35 35.7533 1799.35 39.156 Q1799.35 41.7486 1801.33 43.2475 Q1803.32 44.7058 1809.31 46.0426 L1811.86 46.6097 Q1819.8 48.3111 1823.13 51.4303 Q1826.49 54.509 1826.49 60.0587 Q1826.49 66.3781 1821.46 70.0644 Q1816.48 73.7508 1807.73 73.7508 Q1804.09 73.7508 1800.12 73.0216 Q1796.19 72.3329 1791.81 70.9151 L1791.81 63.2184 Q1795.94 65.3654 1799.95 66.4591 Q1803.96 67.5124 1807.89 67.5124 Q1813.16 67.5124 1816 65.73 Q1818.83 63.9071 1818.83 60.6258 Q1818.83 57.5877 1816.77 55.9673 Q1814.74 54.3469 1807.81 52.8481 L1805.22 52.2405 Q1798.29 50.7821 1795.21 47.7845 Q1792.14 44.7463 1792.14 39.4801 Q1792.14 33.0797 1796.67 29.5959 Q1801.21 26.1121 1809.55 26.1121 Q1813.69 26.1121 1817.33 26.7198 Q1820.98 27.3274 1824.06 28.5427 Z" fill="#000000" fill-rule="nonzero" fill-opacity="1"></path><polyline clip-path="url(#clip192)" style="stroke:#009af9; stroke-linecap:round; stroke-linejoin:round; stroke-width:4; stroke-opacity:1; fill:none" points="237.067,160.256 345.176,185.043 453.285,209.339 561.394,233.155 669.502,256.499 777.611,279.38 885.72,301.806 993.829,323.786 1101.94,345.328 1210.05,366.44 1318.15,387.133 1426.26,407.414 1534.37,427.292 1642.48,446.774 1750.59,465.87 1858.7,484.587 1966.81,502.932 2074.92,520.914 2183.03,538.538 2291.13,555.812 "></polyline>
<polyline clip-path="url(#clip192)" style="stroke:#e26f46; stroke-linecap:round; stroke-linejoin:round; stroke-width:4; stroke-opacity:1; fill:none" points="237.067,376.425 345.176,572.182 453.285,730.736 561.394,859.18 669.502,963.243 777.611,1047.55 885.72,1115.85 993.829,1171.17 1101.94,1215.96 1210.05,1252.21 1318.15,1281.54 1426.26,1305.24 1534.37,1324.39 1642.48,1339.85 1750.59,1352.32 1858.7,1362.37 1966.81,1370.46 2074.92,1376.97 2183.03,1382.2 2291.13,1386.4 "></polyline>
<path clip-path="url(#clip190)" d="M1591.11 322.316 L2280.18 322.316 L2280.18 166.796 L1591.11 166.796  Z" fill="#ffffff" fill-rule="evenodd" fill-opacity="1"></path>
<polyline clip-path="url(#clip190)" style="stroke:#000000; stroke-linecap:round; stroke-linejoin:round; stroke-width:4; stroke-opacity:1; fill:none" points="1591.11,322.316 2280.18,322.316 2280.18,166.796 1591.11,166.796 1591.11,322.316 "></polyline>
<polyline clip-path="url(#clip190)" style="stroke:#009af9; stroke-linecap:round; stroke-linejoin:round; stroke-width:4; stroke-opacity:1; fill:none" points="1615.3,218.636 1760.45,218.636 "></polyline>
<path clip-path="url(#clip190)" d="M1784.65 199.897 L1788.91 199.897 L1788.91 235.916 L1784.65 235.916 L1784.65 199.897 Z" fill="#000000" fill-rule="nonzero" fill-opacity="1"></path><path clip-path="url(#clip190)" d="M1819.99 221.888 L1819.99 223.971 L1800.41 223.971 Q1800.69 228.369 1803.05 230.684 Q1805.43 232.976 1809.67 232.976 Q1812.12 232.976 1814.41 232.374 Q1816.73 231.772 1819 230.569 L1819 234.596 Q1816.71 235.568 1814.3 236.078 Q1811.89 236.587 1809.41 236.587 Q1803.21 236.587 1799.58 232.976 Q1795.97 229.365 1795.97 223.207 Q1795.97 216.842 1799.39 213.115 Q1802.84 209.365 1808.67 209.365 Q1813.91 209.365 1816.94 212.745 Q1819.99 216.101 1819.99 221.888 M1815.73 220.638 Q1815.69 217.143 1813.77 215.059 Q1811.87 212.976 1808.72 212.976 Q1805.16 212.976 1803 214.99 Q1800.87 217.004 1800.55 220.661 L1815.73 220.638 Z" fill="#000000" fill-rule="nonzero" fill-opacity="1"></path><path clip-path="url(#clip190)" d="M1838.77 222.883 Q1833.6 222.883 1831.61 224.064 Q1829.62 225.244 1829.62 228.092 Q1829.62 230.36 1831.1 231.703 Q1832.61 233.022 1835.18 233.022 Q1838.72 233.022 1840.85 230.522 Q1843 227.999 1843 223.832 L1843 222.883 L1838.77 222.883 M1847.26 221.124 L1847.26 235.916 L1843 235.916 L1843 231.981 Q1841.54 234.342 1839.37 235.476 Q1837.19 236.587 1834.04 236.587 Q1830.06 236.587 1827.7 234.365 Q1825.36 232.119 1825.36 228.369 Q1825.36 223.994 1828.28 221.772 Q1831.22 219.55 1837.03 219.55 L1843 219.55 L1843 219.133 Q1843 216.194 1841.06 214.596 Q1839.14 212.976 1835.64 212.976 Q1833.42 212.976 1831.31 213.508 Q1829.21 214.041 1827.26 215.106 L1827.26 211.17 Q1829.6 210.268 1831.8 209.828 Q1834 209.365 1836.08 209.365 Q1841.71 209.365 1844.48 212.282 Q1847.26 215.198 1847.26 221.124 Z" fill="#000000" fill-rule="nonzero" fill-opacity="1"></path><path clip-path="url(#clip190)" d="M1871.06 213.971 Q1870.34 213.555 1869.48 213.37 Q1868.65 213.161 1867.63 213.161 Q1864.02 213.161 1862.08 215.522 Q1860.16 217.86 1860.16 222.258 L1860.16 235.916 L1855.87 235.916 L1855.87 209.99 L1860.16 209.99 L1860.16 214.018 Q1861.5 211.657 1863.65 210.522 Q1865.8 209.365 1868.88 209.365 Q1869.32 209.365 1869.85 209.434 Q1870.39 209.481 1871.03 209.596 L1871.06 213.971 Z" fill="#000000" fill-rule="nonzero" fill-opacity="1"></path><path clip-path="url(#clip190)" d="M1896.24 220.268 L1896.24 235.916 L1891.98 235.916 L1891.98 220.407 Q1891.98 216.726 1890.55 214.897 Q1889.11 213.069 1886.24 213.069 Q1882.79 213.069 1880.8 215.268 Q1878.81 217.467 1878.81 221.263 L1878.81 235.916 L1874.53 235.916 L1874.53 209.99 L1878.81 209.99 L1878.81 214.018 Q1880.34 211.68 1882.4 210.522 Q1884.48 209.365 1887.19 209.365 Q1891.66 209.365 1893.95 212.143 Q1896.24 214.897 1896.24 220.268 Z" fill="#000000" fill-rule="nonzero" fill-opacity="1"></path><path clip-path="url(#clip190)" d="M1904.74 209.99 L1909 209.99 L1909 235.916 L1904.74 235.916 L1904.74 209.99 M1904.74 199.897 L1909 199.897 L1909 205.291 L1904.74 205.291 L1904.74 199.897 Z" fill="#000000" fill-rule="nonzero" fill-opacity="1"></path><path clip-path="url(#clip190)" d="M1939.46 220.268 L1939.46 235.916 L1935.2 235.916 L1935.2 220.407 Q1935.2 216.726 1933.77 214.897 Q1932.33 213.069 1929.46 213.069 Q1926.01 213.069 1924.02 215.268 Q1922.03 217.467 1922.03 221.263 L1922.03 235.916 L1917.75 235.916 L1917.75 209.99 L1922.03 209.99 L1922.03 214.018 Q1923.56 211.68 1925.62 210.522 Q1927.7 209.365 1930.41 209.365 Q1934.88 209.365 1937.17 212.143 Q1939.46 214.897 1939.46 220.268 Z" fill="#000000" fill-rule="nonzero" fill-opacity="1"></path><path clip-path="url(#clip190)" d="M1965.02 222.652 Q1965.02 218.022 1963.09 215.476 Q1961.2 212.93 1957.75 212.93 Q1954.32 212.93 1952.4 215.476 Q1950.5 218.022 1950.5 222.652 Q1950.5 227.258 1952.4 229.805 Q1954.32 232.351 1957.75 232.351 Q1961.2 232.351 1963.09 229.805 Q1965.02 227.258 1965.02 222.652 M1969.28 232.698 Q1969.28 239.318 1966.34 242.536 Q1963.4 245.777 1957.33 245.777 Q1955.09 245.777 1953.09 245.43 Q1951.1 245.105 1949.23 244.411 L1949.23 240.268 Q1951.1 241.286 1952.93 241.772 Q1954.76 242.258 1956.66 242.258 Q1960.85 242.258 1962.93 240.059 Q1965.02 237.883 1965.02 233.462 L1965.02 231.356 Q1963.7 233.647 1961.64 234.781 Q1959.58 235.916 1956.71 235.916 Q1951.94 235.916 1949.02 232.281 Q1946.1 228.647 1946.1 222.652 Q1946.1 216.633 1949.02 212.999 Q1951.94 209.365 1956.71 209.365 Q1959.58 209.365 1961.64 210.499 Q1963.7 211.633 1965.02 213.925 L1965.02 209.99 L1969.28 209.99 L1969.28 232.698 Z" fill="#000000" fill-rule="nonzero" fill-opacity="1"></path><path clip-path="url(#clip190)" d="M2008.14 213.971 Q2007.42 213.555 2006.57 213.37 Q2005.73 213.161 2004.71 213.161 Q2001.1 213.161 1999.16 215.522 Q1997.24 217.86 1997.24 222.258 L1997.24 235.916 L1992.96 235.916 L1992.96 209.99 L1997.24 209.99 L1997.24 214.018 Q1998.58 211.657 2000.73 210.522 Q2002.89 209.365 2005.96 209.365 Q2006.4 209.365 2006.94 209.434 Q2007.47 209.481 2008.12 209.596 L2008.14 213.971 Z" fill="#000000" fill-rule="nonzero" fill-opacity="1"></path><path clip-path="url(#clip190)" d="M2024.39 222.883 Q2019.23 222.883 2017.24 224.064 Q2015.25 225.244 2015.25 228.092 Q2015.25 230.36 2016.73 231.703 Q2018.23 233.022 2020.8 233.022 Q2024.34 233.022 2026.47 230.522 Q2028.63 227.999 2028.63 223.832 L2028.63 222.883 L2024.39 222.883 M2032.89 221.124 L2032.89 235.916 L2028.63 235.916 L2028.63 231.981 Q2027.17 234.342 2024.99 235.476 Q2022.82 236.587 2019.67 236.587 Q2015.69 236.587 2013.33 234.365 Q2010.99 232.119 2010.99 228.369 Q2010.99 223.994 2013.9 221.772 Q2016.84 219.55 2022.65 219.55 L2028.63 219.55 L2028.63 219.133 Q2028.63 216.194 2026.68 214.596 Q2024.76 212.976 2021.27 212.976 Q2019.04 212.976 2016.94 213.508 Q2014.83 214.041 2012.89 215.106 L2012.89 211.17 Q2015.22 210.268 2017.42 209.828 Q2019.62 209.365 2021.71 209.365 Q2027.33 209.365 2030.11 212.282 Q2032.89 215.198 2032.89 221.124 Z" fill="#000000" fill-rule="nonzero" fill-opacity="1"></path><path clip-path="url(#clip190)" d="M2045.87 202.629 L2045.87 209.99 L2054.65 209.99 L2054.65 213.3 L2045.87 213.3 L2045.87 227.374 Q2045.87 230.545 2046.73 231.448 Q2047.61 232.351 2050.27 232.351 L2054.65 232.351 L2054.65 235.916 L2050.27 235.916 Q2045.34 235.916 2043.46 234.087 Q2041.59 232.235 2041.59 227.374 L2041.59 213.3 L2038.46 213.3 L2038.46 209.99 L2041.59 209.99 L2041.59 202.629 L2045.87 202.629 Z" fill="#000000" fill-rule="nonzero" fill-opacity="1"></path><path clip-path="url(#clip190)" d="M2082.42 221.888 L2082.42 223.971 L2062.84 223.971 Q2063.12 228.369 2065.48 230.684 Q2067.86 232.976 2072.1 232.976 Q2074.55 232.976 2076.84 232.374 Q2079.16 231.772 2081.43 230.569 L2081.43 234.596 Q2079.14 235.568 2076.73 236.078 Q2074.32 236.587 2071.84 236.587 Q2065.64 236.587 2062.01 232.976 Q2058.4 229.365 2058.4 223.207 Q2058.4 216.842 2061.82 213.115 Q2065.27 209.365 2071.1 209.365 Q2076.33 209.365 2079.37 212.745 Q2082.42 216.101 2082.42 221.888 M2078.16 220.638 Q2078.12 217.143 2076.2 215.059 Q2074.3 212.976 2071.15 212.976 Q2067.58 212.976 2065.43 214.99 Q2063.3 217.004 2062.98 220.661 L2078.16 220.638 Z" fill="#000000" fill-rule="nonzero" fill-opacity="1"></path><path clip-path="url(#clip190)" d="M2105.04 214.388 L2134.71 214.388 L2134.71 218.277 L2105.04 218.277 L2105.04 214.388 M2105.04 223.832 L2134.71 223.832 L2134.71 227.768 L2105.04 227.768 L2105.04 223.832 Z" fill="#000000" fill-rule="nonzero" fill-opacity="1"></path><path clip-path="url(#clip190)" d="M2169.88 204.434 Q2166.26 204.434 2164.44 207.999 Q2162.63 211.541 2162.63 218.67 Q2162.63 225.777 2164.44 229.342 Q2166.26 232.883 2169.88 232.883 Q2173.51 232.883 2175.32 229.342 Q2177.14 225.777 2177.14 218.67 Q2177.14 211.541 2175.32 207.999 Q2173.51 204.434 2169.88 204.434 M2169.88 200.731 Q2175.69 200.731 2178.74 205.337 Q2181.82 209.92 2181.82 218.67 Q2181.82 227.397 2178.74 232.004 Q2175.69 236.587 2169.88 236.587 Q2164.07 236.587 2160.99 232.004 Q2157.93 227.397 2157.93 218.67 Q2157.93 209.92 2160.99 205.337 Q2164.07 200.731 2169.88 200.731 Z" fill="#000000" fill-rule="nonzero" fill-opacity="1"></path><path clip-path="url(#clip190)" d="M2190.04 230.036 L2194.92 230.036 L2194.92 235.916 L2190.04 235.916 L2190.04 230.036 Z" fill="#000000" fill-rule="nonzero" fill-opacity="1"></path><path clip-path="url(#clip190)" d="M2215.11 204.434 Q2211.5 204.434 2209.67 207.999 Q2207.86 211.541 2207.86 218.67 Q2207.86 225.777 2209.67 229.342 Q2211.5 232.883 2215.11 232.883 Q2218.74 232.883 2220.55 229.342 Q2222.38 225.777 2222.38 218.67 Q2222.38 211.541 2220.55 207.999 Q2218.74 204.434 2215.11 204.434 M2215.11 200.731 Q2220.92 200.731 2223.97 205.337 Q2227.05 209.92 2227.05 218.67 Q2227.05 227.397 2223.97 232.004 Q2220.92 236.587 2215.11 236.587 Q2209.3 236.587 2206.22 232.004 Q2203.16 227.397 2203.16 218.67 Q2203.16 209.92 2206.22 205.337 Q2209.3 200.731 2215.11 200.731 Z" fill="#000000" fill-rule="nonzero" fill-opacity="1"></path><path clip-path="url(#clip190)" d="M2236.08 231.981 L2243.72 231.981 L2243.72 205.615 L2235.41 207.282 L2235.41 203.022 L2243.67 201.356 L2248.35 201.356 L2248.35 231.981 L2255.99 231.981 L2255.99 235.916 L2236.08 235.916 L2236.08 231.981 Z" fill="#000000" fill-rule="nonzero" fill-opacity="1"></path><polyline clip-path="url(#clip190)" style="stroke:#e26f46; stroke-linecap:round; stroke-linejoin:round; stroke-width:4; stroke-opacity:1; fill:none" points="1615.3,270.476 1760.45,270.476 "></polyline>
<path clip-path="url(#clip190)" d="M1784.65 251.737 L1788.91 251.737 L1788.91 287.756 L1784.65 287.756 L1784.65 251.737 Z" fill="#000000" fill-rule="nonzero" fill-opacity="1"></path><path clip-path="url(#clip190)" d="M1819.99 273.728 L1819.99 275.811 L1800.41 275.811 Q1800.69 280.209 1803.05 282.524 Q1805.43 284.816 1809.67 284.816 Q1812.12 284.816 1814.41 284.214 Q1816.73 283.612 1819 282.409 L1819 286.436 Q1816.71 287.408 1814.3 287.918 Q1811.89 288.427 1809.41 288.427 Q1803.21 288.427 1799.58 284.816 Q1795.97 281.205 1795.97 275.047 Q1795.97 268.682 1799.39 264.955 Q1802.84 261.205 1808.67 261.205 Q1813.91 261.205 1816.94 264.585 Q1819.99 267.941 1819.99 273.728 M1815.73 272.478 Q1815.69 268.983 1813.77 266.899 Q1811.87 264.816 1808.72 264.816 Q1805.16 264.816 1803 266.83 Q1800.87 268.844 1800.55 272.501 L1815.73 272.478 Z" fill="#000000" fill-rule="nonzero" fill-opacity="1"></path><path clip-path="url(#clip190)" d="M1838.77 274.723 Q1833.6 274.723 1831.61 275.904 Q1829.62 277.084 1829.62 279.932 Q1829.62 282.2 1831.1 283.543 Q1832.61 284.862 1835.18 284.862 Q1838.72 284.862 1840.85 282.362 Q1843 279.839 1843 275.672 L1843 274.723 L1838.77 274.723 M1847.26 272.964 L1847.26 287.756 L1843 287.756 L1843 283.821 Q1841.54 286.182 1839.37 287.316 Q1837.19 288.427 1834.04 288.427 Q1830.06 288.427 1827.7 286.205 Q1825.36 283.959 1825.36 280.209 Q1825.36 275.834 1828.28 273.612 Q1831.22 271.39 1837.03 271.39 L1843 271.39 L1843 270.973 Q1843 268.034 1841.06 266.436 Q1839.14 264.816 1835.64 264.816 Q1833.42 264.816 1831.31 265.348 Q1829.21 265.881 1827.26 266.946 L1827.26 263.01 Q1829.6 262.108 1831.8 261.668 Q1834 261.205 1836.08 261.205 Q1841.71 261.205 1844.48 264.122 Q1847.26 267.038 1847.26 272.964 Z" fill="#000000" fill-rule="nonzero" fill-opacity="1"></path><path clip-path="url(#clip190)" d="M1871.06 265.811 Q1870.34 265.395 1869.48 265.21 Q1868.65 265.001 1867.63 265.001 Q1864.02 265.001 1862.08 267.362 Q1860.16 269.7 1860.16 274.098 L1860.16 287.756 L1855.87 287.756 L1855.87 261.83 L1860.16 261.83 L1860.16 265.858 Q1861.5 263.497 1863.65 262.362 Q1865.8 261.205 1868.88 261.205 Q1869.32 261.205 1869.85 261.274 Q1870.39 261.321 1871.03 261.436 L1871.06 265.811 Z" fill="#000000" fill-rule="nonzero" fill-opacity="1"></path><path clip-path="url(#clip190)" d="M1896.24 272.108 L1896.24 287.756 L1891.98 287.756 L1891.98 272.247 Q1891.98 268.566 1890.55 266.737 Q1889.11 264.909 1886.24 264.909 Q1882.79 264.909 1880.8 267.108 Q1878.81 269.307 1878.81 273.103 L1878.81 287.756 L1874.53 287.756 L1874.53 261.83 L1878.81 261.83 L1878.81 265.858 Q1880.34 263.52 1882.4 262.362 Q1884.48 261.205 1887.19 261.205 Q1891.66 261.205 1893.95 263.983 Q1896.24 266.737 1896.24 272.108 Z" fill="#000000" fill-rule="nonzero" fill-opacity="1"></path><path clip-path="url(#clip190)" d="M1904.74 261.83 L1909 261.83 L1909 287.756 L1904.74 287.756 L1904.74 261.83 M1904.74 251.737 L1909 251.737 L1909 257.131 L1904.74 257.131 L1904.74 251.737 Z" fill="#000000" fill-rule="nonzero" fill-opacity="1"></path><path clip-path="url(#clip190)" d="M1939.46 272.108 L1939.46 287.756 L1935.2 287.756 L1935.2 272.247 Q1935.2 268.566 1933.77 266.737 Q1932.33 264.909 1929.46 264.909 Q1926.01 264.909 1924.02 267.108 Q1922.03 269.307 1922.03 273.103 L1922.03 287.756 L1917.75 287.756 L1917.75 261.83 L1922.03 261.83 L1922.03 265.858 Q1923.56 263.52 1925.62 262.362 Q1927.7 261.205 1930.41 261.205 Q1934.88 261.205 1937.17 263.983 Q1939.46 266.737 1939.46 272.108 Z" fill="#000000" fill-rule="nonzero" fill-opacity="1"></path><path clip-path="url(#clip190)" d="M1965.02 274.492 Q1965.02 269.862 1963.09 267.316 Q1961.2 264.77 1957.75 264.77 Q1954.32 264.77 1952.4 267.316 Q1950.5 269.862 1950.5 274.492 Q1950.5 279.098 1952.4 281.645 Q1954.32 284.191 1957.75 284.191 Q1961.2 284.191 1963.09 281.645 Q1965.02 279.098 1965.02 274.492 M1969.28 284.538 Q1969.28 291.158 1966.34 294.376 Q1963.4 297.617 1957.33 297.617 Q1955.09 297.617 1953.09 297.27 Q1951.1 296.945 1949.23 296.251 L1949.23 292.108 Q1951.1 293.126 1952.93 293.612 Q1954.76 294.098 1956.66 294.098 Q1960.85 294.098 1962.93 291.899 Q1965.02 289.723 1965.02 285.302 L1965.02 283.196 Q1963.7 285.487 1961.64 286.621 Q1959.58 287.756 1956.71 287.756 Q1951.94 287.756 1949.02 284.121 Q1946.1 280.487 1946.1 274.492 Q1946.1 268.473 1949.02 264.839 Q1951.94 261.205 1956.71 261.205 Q1959.58 261.205 1961.64 262.339 Q1963.7 263.473 1965.02 265.765 L1965.02 261.83 L1969.28 261.83 L1969.28 284.538 Z" fill="#000000" fill-rule="nonzero" fill-opacity="1"></path><path clip-path="url(#clip190)" d="M2008.14 265.811 Q2007.42 265.395 2006.57 265.21 Q2005.73 265.001 2004.71 265.001 Q2001.1 265.001 1999.16 267.362 Q1997.24 269.7 1997.24 274.098 L1997.24 287.756 L1992.96 287.756 L1992.96 261.83 L1997.24 261.83 L1997.24 265.858 Q1998.58 263.497 2000.73 262.362 Q2002.89 261.205 2005.96 261.205 Q2006.4 261.205 2006.94 261.274 Q2007.47 261.321 2008.12 261.436 L2008.14 265.811 Z" fill="#000000" fill-rule="nonzero" fill-opacity="1"></path><path clip-path="url(#clip190)" d="M2024.39 274.723 Q2019.23 274.723 2017.24 275.904 Q2015.25 277.084 2015.25 279.932 Q2015.25 282.2 2016.73 283.543 Q2018.23 284.862 2020.8 284.862 Q2024.34 284.862 2026.47 282.362 Q2028.63 279.839 2028.63 275.672 L2028.63 274.723 L2024.39 274.723 M2032.89 272.964 L2032.89 287.756 L2028.63 287.756 L2028.63 283.821 Q2027.17 286.182 2024.99 287.316 Q2022.82 288.427 2019.67 288.427 Q2015.69 288.427 2013.33 286.205 Q2010.99 283.959 2010.99 280.209 Q2010.99 275.834 2013.9 273.612 Q2016.84 271.39 2022.65 271.39 L2028.63 271.39 L2028.63 270.973 Q2028.63 268.034 2026.68 266.436 Q2024.76 264.816 2021.27 264.816 Q2019.04 264.816 2016.94 265.348 Q2014.83 265.881 2012.89 266.946 L2012.89 263.01 Q2015.22 262.108 2017.42 261.668 Q2019.62 261.205 2021.71 261.205 Q2027.33 261.205 2030.11 264.122 Q2032.89 267.038 2032.89 272.964 Z" fill="#000000" fill-rule="nonzero" fill-opacity="1"></path><path clip-path="url(#clip190)" d="M2045.87 254.469 L2045.87 261.83 L2054.65 261.83 L2054.65 265.14 L2045.87 265.14 L2045.87 279.214 Q2045.87 282.385 2046.73 283.288 Q2047.61 284.191 2050.27 284.191 L2054.65 284.191 L2054.65 287.756 L2050.27 287.756 Q2045.34 287.756 2043.46 285.927 Q2041.59 284.075 2041.59 279.214 L2041.59 265.14 L2038.46 265.14 L2038.46 261.83 L2041.59 261.83 L2041.59 254.469 L2045.87 254.469 Z" fill="#000000" fill-rule="nonzero" fill-opacity="1"></path><path clip-path="url(#clip190)" d="M2082.42 273.728 L2082.42 275.811 L2062.84 275.811 Q2063.12 280.209 2065.48 282.524 Q2067.86 284.816 2072.1 284.816 Q2074.55 284.816 2076.84 284.214 Q2079.16 283.612 2081.43 282.409 L2081.43 286.436 Q2079.14 287.408 2076.73 287.918 Q2074.32 288.427 2071.84 288.427 Q2065.64 288.427 2062.01 284.816 Q2058.4 281.205 2058.4 275.047 Q2058.4 268.682 2061.82 264.955 Q2065.27 261.205 2071.1 261.205 Q2076.33 261.205 2079.37 264.585 Q2082.42 267.941 2082.42 273.728 M2078.16 272.478 Q2078.12 268.983 2076.2 266.899 Q2074.3 264.816 2071.15 264.816 Q2067.58 264.816 2065.43 266.83 Q2063.3 268.844 2062.98 272.501 L2078.16 272.478 Z" fill="#000000" fill-rule="nonzero" fill-opacity="1"></path><path clip-path="url(#clip190)" d="M2105.04 266.228 L2134.71 266.228 L2134.71 270.117 L2105.04 270.117 L2105.04 266.228 M2105.04 275.672 L2134.71 275.672 L2134.71 279.608 L2105.04 279.608 L2105.04 275.672 Z" fill="#000000" fill-rule="nonzero" fill-opacity="1"></path><path clip-path="url(#clip190)" d="M2169.88 256.274 Q2166.26 256.274 2164.44 259.839 Q2162.63 263.381 2162.63 270.51 Q2162.63 277.617 2164.44 281.182 Q2166.26 284.723 2169.88 284.723 Q2173.51 284.723 2175.32 281.182 Q2177.14 277.617 2177.14 270.51 Q2177.14 263.381 2175.32 259.839 Q2173.51 256.274 2169.88 256.274 M2169.88 252.571 Q2175.69 252.571 2178.74 257.177 Q2181.82 261.76 2181.82 270.51 Q2181.82 279.237 2178.74 283.844 Q2175.69 288.427 2169.88 288.427 Q2164.07 288.427 2160.99 283.844 Q2157.93 279.237 2157.93 270.51 Q2157.93 261.76 2160.99 257.177 Q2164.07 252.571 2169.88 252.571 Z" fill="#000000" fill-rule="nonzero" fill-opacity="1"></path><path clip-path="url(#clip190)" d="M2190.04 281.876 L2194.92 281.876 L2194.92 287.756 L2190.04 287.756 L2190.04 281.876 Z" fill="#000000" fill-rule="nonzero" fill-opacity="1"></path><path clip-path="url(#clip190)" d="M2205.92 283.821 L2213.56 283.821 L2213.56 257.455 L2205.25 259.122 L2205.25 254.862 L2213.51 253.196 L2218.19 253.196 L2218.19 283.821 L2225.82 283.821 L2225.82 287.756 L2205.92 287.756 L2205.92 283.821 Z" fill="#000000" fill-rule="nonzero" fill-opacity="1"></path></svg>